<?xml version="1.0" encoding="UTF-8"?>
<svg fill="#321F40" width="27px" height="43px" viewBox="0 0 27 43" version="1.1" xmlns="http://www.w3.org/2000/svg" xmlns:xlink="http://www.w3.org/1999/xlink">
  <path d="M25.8764167,21.1085833 C25.0963333,17.5246667 24.4226667,14.4295 25.7566667,11.64575 C25.8654167,11.4189167 25.8374167,11.1501667 25.6843333,10.9504167 C25.53125,10.75075 25.2789167,10.6540833 25.0315833,10.7003333 C24.8709167,10.7303333 21.2879167,11.45575 18.99475,16.519 C18.3735833,15.7473333 17.4299167,14.4283333 16.6155833,12.6785 C14.81625,8.81183333 14.5055833,4.83533333 15.6921667,0.859083333 C15.7653333,0.61425 15.69225,0.349 15.504,0.176166667 C15.3158333,0.00325 15.0456667,-0.04725 14.8075833,0.0463333333 C14.7276667,0.07775 12.83025,0.837833333 11.0283333,2.79933333 C9.37033333,4.60416667 7.48025,7.81066667 7.89175,12.83675 C8.11041667,15.5075 8.08675,17.3784167 7.98358333,18.65425 C7.45633333,16.8781667 6.58366667,15.52175 5.80658333,14.5830833 C4.49016667,12.99275 3.17058333,12.2329167 3.115,12.2014167 C2.88908333,12.0730833 2.60925,12.08725 2.3975,12.2379167 C2.18583333,12.3885 2.08066667,12.64825 2.128,12.9038333 C2.94033333,17.2919167 2.13533333,19.7843333 1.283,22.4230833 C0.65475,24.3680833 0.00508333333,26.3794167 0.00508333333,29.1718333 C0.00525,36.613 6.059,42.6666667 13.5,42.6666667 C20.941,42.6666667 26.99475,36.613 26.99475,29.1719167 C26.99475,26.2463333 26.4006667,23.5168333 25.8764167,21.1085833 Z M18.4775,40.2643333 C19.3471667,39.1753333 19.8688333,37.7968333 19.8688333,36.2978333 C19.8688333,31.75025 18.4741667,28.0063333 17.3041667,25.6664167 C16.0334167,23.1248333 14.7685833,21.6668333 14.7154167,21.6060833 C14.4724167,21.3283333 14.0504167,21.3001667 13.77275,21.5431667 C13.4950833,21.7861667 13.4669167,22.2081667 13.7098333,22.4858333 C13.758,22.541 18.5326667,28.0925833 18.5326667,36.2978333 C18.5326667,39.0728333 16.275,41.3305833 13.4999167,41.3305833 C10.6195,41.3305833 8.46725,38.6735833 8.46725,36.2978333 C8.46725,35.12025 8.72333333,34.3213333 8.97391667,33.6951667 C9.111,33.3525833 8.94433333,32.96375 8.60175,32.8266667 C8.25908333,32.6895833 7.87033333,32.85625 7.73333333,33.19875 C7.453,33.89975 7.13108333,34.88525 7.13108333,36.2978333 C7.13108333,37.7159167 7.68991667,39.16175 8.675,40.3311667 C4.36425,38.46025 1.34125,34.1628333 1.34125,29.1719167 C1.34125,26.59 1.93058333,24.7654167 2.5545,22.83375 C3.315,20.4790833 4.09833333,18.0541667 3.6855,14.30025 C5.07108333,15.54875 7.13108333,18.0731667 7.13108333,22.046 C7.13108333,22.31225 7.28916667,22.5530833 7.5335,22.6589167 C7.77766667,22.7648333 8.0615,22.7155 8.25591667,22.5335 C8.5305,22.27625 9.86766667,20.5944167 9.2235,12.72775 C8.92666667,9.10341667 9.8515,6.082 11.9719167,3.7475 C12.6885,2.95858333 13.4294167,2.38358333 14.0294167,1.98908333 C13.0546667,6.68416667 14.197,10.6483333 15.4040833,13.2423333 C16.8466667,16.3423333 18.652,18.16675 18.7281667,18.2429167 C18.8886667,18.4035 19.1199167,18.4715 19.342,18.4235 C19.564,18.3754167 19.7463333,18.2178333 19.8260833,18.0051667 C21.051,14.7385 22.8159167,13.2266667 24.0034167,12.54475 C23.2495833,15.323 23.8940833,18.285 24.5706667,21.393 C25.1055833,23.84975 25.6585,26.39025 25.6585,29.1720833 C25.6586667,34.1038333 22.707,38.359 18.4775,40.2643333 Z"></path>
  <path d="M14.2205,26.3821667 C13.86075,26.3014167 13.5031667,26.52775 13.4224167,26.8876667 C13.2354167,27.7208333 12.9789167,28.3291667 12.7599167,28.7395833 C11.3820833,27.1313333 10.097,27.0785833 9.93708333,27.0785833 C9.56816667,27.0785833 9.269,27.3776667 9.269,27.7466667 C9.269,28.73625 9.1525,29.5803333 8.90233333,30.40275 C8.795,30.75575 8.99416667,31.129 9.34716667,31.2363333 C9.412,31.256 9.47741667,31.2655 9.54183333,31.2655 C9.82816667,31.2655 10.093,31.0798333 10.1806667,30.7915833 C10.388,30.10975 10.5180833,29.3979167 10.57375,28.63425 C10.587,28.6411667 10.6005,28.6483333 10.6140833,28.65575 C11.0086667,28.8704167 11.6096667,29.322 12.2316667,30.255 C12.3426667,30.4215833 12.5225,30.5295 12.7216667,30.54925 C12.92125,30.5691667 13.1184167,30.4984167 13.2598333,30.3568333 C13.35925,30.2574167 14.2450833,29.3235833 14.7260833,27.18025 C14.8069167,26.82025 14.5805833,26.4628333 14.2205,26.3821667 Z"></path>
</svg>
