<?xml version="1.0" encoding="iso-8859-1"?>
<svg fill="#321F40" version="1.1" id="Layer_1" xmlns="http://www.w3.org/2000/svg" xmlns:xlink="http://www.w3.org/1999/xlink" x="0px" y="0px"
   viewBox="0 0 219.481 219.481" style="enable-background:new 0 0 219.481 219.481;" xml:space="preserve">
      <path d="M187.941,173.07c-18.772-23.021-46.558-36.223-76.234-36.223c-31.873,0-61.902,15.557-80.329,41.615
        c-1.031,1.453-0.961,3.417,0.167,4.796c18.776,23.021,46.562,36.223,76.231,36.223c31.873,0,61.902-15.557,80.329-41.615
        C189.134,176.413,189.064,174.45,187.941,173.07z M107.775,211.549c-26.256,0-50.908-11.249-68.115-30.97
        c17.056-22.471,43.761-35.797,72.047-35.797c26.264,0,50.916,11.249,68.115,30.966
        C162.762,198.223,136.057,211.549,107.775,211.549z"/>
      <path d="M109.894,150.731c-15.309,0-27.767,12.458-27.767,27.767c0,15.309,12.458,27.767,27.767,27.767
        c15.309,0,27.767-12.458,27.767-27.767C137.661,163.189,125.203,150.731,109.894,150.731z M109.894,198.331
        c-10.935,0-19.833-8.898-19.833-19.833c0-10.935,8.898-19.833,19.833-19.833s19.833,8.898,19.833,19.833
        C129.727,189.434,120.829,198.331,109.894,198.331z"/>
      <path d="M79.815,87.718h27.023v40.399c0,1.879,1.321,3.502,3.161,3.885c0.271,0.054,0.542,0.081,0.806,0.081
        c1.557,0,3.002-0.918,3.641-2.39l34.565-79.787c0.531-1.224,0.407-2.638-0.325-3.754c-0.732-1.116-1.979-1.79-3.316-1.79h-27.023
        V3.965c0-1.879-1.321-3.502-3.161-3.885c-1.879-0.372-3.699,0.589-4.447,2.309L76.174,82.174
        c-0.531,1.224-0.407,2.638,0.325,3.754C77.231,87.044,78.478,87.718,79.815,87.718z M110.413,23.101v25.23
        c0,2.192,1.774,3.967,3.967,3.967h24.947l-24.555,56.684v-25.23c0-2.192-1.774-3.967-3.967-3.967H85.858L110.413,23.101z"/>
    </g>
  </g>
</g>
<g>
</g>
<g>
</g>
<g>
</g>
<g>
</g>
<g>
</g>
<g>
</g>
<g>
</g>
<g>
</g>
<g>
</g>
<g>
</g>
<g>
</g>
<g>
</g>
<g>
</g>
<g>
</g>
<g>
</g>
</svg>
