<?xml version="1.0" encoding="UTF-8"?>
<svg fill="#321F40" width="21px" height="40px" viewBox="0 0 21 40" version="1.1" xmlns="http://www.w3.org/2000/svg" xmlns:xlink="http://www.w3.org/1999/xlink">
  <path d="M20.5208594,16.5466406 C20.3835937,16.2835156 20.1114062,16.1186719 19.8145312,16.1186719 L12.9179687,16.1186719 L17.1,1.009375 C17.1664063,0.769453125 17.116875,0.51234375 16.96625,0.314296875 C16.8155469,0.11625 16.5809375,0 16.3321094,0 L6.97929687,0 C6.62109375,0 6.30695312,0.2390625 6.21140625,0.58421875 L0.0425,22.8717969 C-0.02390625,23.1117188 0.025625,23.3688281 0.17625,23.566875 C0.326953125,23.765 0.56140625,23.88125 0.810390625,23.88125 L7.70695312,23.88125 L3.52492187,38.9905469 C3.42132812,39.3649219 3.60257812,39.7592188 3.9540625,39.9242969 C4.06296875,39.9754687 4.17835937,40 4.2925,40 C4.54640625,40 4.79359375,39.8784375 4.94679687,39.6585156 L20.4685156,17.3709375 C20.638125,17.1272656 20.6582031,16.8097656 20.5208594,16.5466406 Z M6.3053125,34.9190625 L9.5221875,23.2970312 C9.58859375,23.0571094 9.5390625,22.8 9.3884375,22.6019531 C9.23773438,22.4038281 9.00328125,22.2875781 8.75429688,22.2875781 L1.85773438,22.2875781 L7.58554688,1.59359375 L15.2849219,1.59359375 L11.1027344,16.7028906 C11.0363281,16.9428125 11.0858594,17.1999219 11.2364844,17.3979688 C11.3872656,17.5960938 11.6217969,17.7123438 11.870625,17.7123438 L18.2885156,17.7123438 L6.3053125,34.9190625 Z"></path>
  <path d="M11.0364062,10.8027344 C10.6128125,10.6844531 10.1729687,10.9320312 10.0546875,11.3558594 L9.94351562,11.75375 C9.82515625,12.1775781 10.0728125,12.6171875 10.4966406,12.7354687 C10.5682812,12.7554687 10.6403906,12.765 10.7114062,12.765 C11.0599219,12.765 11.38,12.5344531 11.4784375,12.1822656 L11.5896094,11.784375 C11.7079687,11.3607031 11.4602344,10.9210937 11.0364062,10.8027344 Z"></path>
  <path d="M13.3953906,2.35609375 C12.971875,2.238125 12.5319531,2.48539063 12.4136719,2.90921875 L10.7223437,8.96507813 C10.6039062,9.38890625 10.8516406,9.8284375 11.2754687,9.94679688 C11.3471094,9.96679688 11.4192187,9.97632813 11.4902344,9.97632813 C11.83875,9.97632813 12.1589062,9.74578125 12.2572656,9.39359375 L13.9485937,3.33773438 C14.0669531,2.91398438 13.8192187,2.47453125 13.3953906,2.35609375 Z"></path>
</svg>
