<?xml version="1.0" encoding="utf-8"?>
<svg fill="#321F40" version="1.1" id="Calque_1" xmlns="http://www.w3.org/2000/svg" xmlns:xlink="http://www.w3.org/1999/xlink" x="0px" y="0px" viewBox="0 0 33 55.3" style="enable-background:new 0 0 33 55.3;" xml:space="preserve">
  <path class="st0" d="M10.8,55.3H13c0.7,0,1.3-0.5,1.4-1.1l0.8-3.5h6.5c3,0,5.5-2.3,6.1-5.6c0.3-1.9,0.6-4,0.9-6h1.9c0.6,0,1.1-0.3,1.3-0.9c0.3-0.5,0.3-1.2,0-1.7l-2.6-5.3c-0.5-8.8-5.5-15.8-13.5-15.8C2.6,15.3,0,22.5,0,29.9c0,3.6,1.5,7,4,9.4L0.7,53.8c-0.1,0.4,0,0.8,0.2,1.1s0.6,0.5,1,0.5h5.3 M24,27.1 M12.4,53.5H2.7l3.1-13.7l0.2-1L5.3,38c-2.2-2.2-3.4-5.1-3.4-8.1c0-3.9,0.8-6.8,2.5-8.8c1-1.2,2.3-2.1,4.1-2.7c2-0.7,4.5-1.1,7.4-1.1c3.2,0,6,1.3,8.1,3.9c2,2.5,3.3,6.1,3.5,10.1l0,0.4l0.2,0.3l2.6,5.2h-1.5v0h-1.6l-0.2,1.6c-0.2,1.7-0.6,3.7-0.9,6c-0.4,2.3-2.2,4-4.2,4h-6.5l-0.6,0c-0.5,0-0.9,0.3-1.1,0.8L12.4,53.5z"/>
  <path id="Shape_1_" class="st0" d="M6.9,20.8c-0.2,0-0.4,0.1-0.5,0.2c-0.1,0.1-3.4,2.4-3.2,6.8c0,0.5,0.4,0.9,0.9,0.9c0,0,0,0,0,0c0.5,0,0.9-0.4,0.9-1c-0.1-3.3,2.3-5.1,2.5-5.2c0.4-0.3,0.5-0.9,0.2-1.3C7.5,21,7.2,20.8,6.9,20.8z"/>
  <circle id="Oval" class="st0" cx="10" cy="20.2" r="1.2"/>
  <path class="st0" d="M15.5,13.6c-0.1,0-0.2,0-0.2,0c-0.3-0.1-0.5-0.5-0.4-0.8l1.4-4.1l-3.5-0.1l2.7-4.8c0.2-0.3,0.6-0.4,0.9-0.2
    c0.3,0.2,0.4,0.6,0.2,0.9L15,7.3l3.1,0.1l-2,5.8C16,13.4,15.8,13.6,15.5,13.6z"/>
  <path class="st0" d="M8.9,14.3c-0.1,0-0.1,0.1-0.2,0.1c-0.3,0.1-0.7-0.1-0.8-0.5L6.8,9.8l-2.9,2L3.3,6.2c0-0.4,0.2-0.7,0.6-0.7
    c0.4,0,0.7,0.2,0.7,0.6l0.3,3.3l2.6-1.7l1.6,5.9C9.3,13.8,9.2,14.1,8.9,14.3z"/>
  <path class="st0" d="M21.8,15.1c-0.1,0-0.1-0.1-0.2-0.1c-0.2-0.3-0.2-0.7,0-0.9l3.2-2.9l-3.1-1.7l4.7-3c0.3-0.2,0.7-0.1,0.9,0.2
    c0.2,0.3,0.1,0.7-0.2,0.9l-2.8,1.8l2.7,1.5L22.5,15C22.3,15.2,22,15.2,21.8,15.1z"/>
</svg>
