<?xml version="1.0" encoding="UTF-8"?>
<svg width="33px" height="40px" viewBox="0 0 33 40" version="1.1" xmlns="http://www.w3.org/2000/svg" xmlns:xlink="http://www.w3.org/1999/xlink">
    <!-- Generator: Sketch 51.2 (57519) - http://www.bohemiancoding.com/sketch -->
    <title>human-brain</title>
    <desc>Created with Sketch.</desc>
    <defs></defs>
    <g id="Page-1" stroke="none" stroke-width="1" fill="none" fill-rule="evenodd">
        <g id="SIGNALEMENT---ETAPE-03" transform="translate(-75.000000, -203.000000)" fill="#321F40" fill-rule="nonzero">
            <g id="//-SIGNALEMENT" transform="translate(30.000000, 142.000000)">
                <g id="::-partie" transform="translate(41.000000, 56.000000)">
                    <g id="human-brain" transform="translate(4.000000, 5.000000)">
                        <path d="M31.9218108,21.1345 L29.3104263,15.804625 C28.8310441,6.9565 23.8246029,0 15.8574389,0 C2.55637541,0 0,7.18525 0,14.533125 C0,18.162125 1.52999315,21.515875 4.00713081,23.959125 L0.707206175,38.4195 C0.619809782,38.802625 0.709925723,39.20525 0.951965523,39.513 C1.19400532,39.82075 1.56163881,40 1.95053421,40 L7.23659442,40 L11.0756077,24.153 C11.3627673,22.8485 10.9987187,21.48375 10.0997843,20.504125 C8.61503457,18.886125 7.89979336,16.8215 8.12427971,14.564125 C8.66324474,9.14525 12.5465125,6.43575 16.1626464,6.43575 C18.7905954,6.43575 23.9949455,7.6545 23.9949455,11.802625 C23.9949455,13.0755 23.3661118,13.397125 21.3369579,13.64 C20.4608925,13.744875 19.7143765,14.334125 19.4022465,15.1685 C19.2249814,15.642375 18.9980228,15.763375 18.5836625,15.763375 C18.1516252,15.763375 17.5158689,15.632 16.5197726,15.632 C15.9717836,15.632 14.4320248,17.63725 14.2667504,18.41725 C13.8601779,20.336125 14.8640621,22.115625 14.643037,23.14575 C13.8065287,27.04575 11.8299115,34.900125 10.7682987,40 L12.9757067,40 C13.6497838,40 14.2346103,39.5295 14.3861633,38.8655 L15.1925094,35.332 L21.7123792,35.332 C24.6820023,35.332 27.2326914,32.987125 27.771162,29.753375 C28.082303,27.88125 28.4189089,25.7575 28.7010003,23.745125 L30.6172929,23.745125 C31.1772726,23.745125 31.6931215,23.408375 31.964211,22.86575 C32.2355478,22.323 32.2192305,21.660125 31.9218108,21.1345 Z M28.7011239,21.870125 L27.0911513,21.870125 L26.8651815,23.482 C26.621782,25.218375 26.3113826,27.22375 25.9426366,29.442125 C25.5553482,31.7685 23.7762691,33.457 21.7123792,33.457 L15.1925094,33.457 L14.1454833,33.457 C14.3898718,32.417 14.6358673,31.37975 14.872468,30.382125 C15.4966043,27.74975 16.0862518,25.263375 16.4552451,23.54325 C16.6353534,22.703375 16.4519075,21.87325 16.2745188,21.070625 C16.1097388,20.325375 15.9395198,19.555375 16.0690692,18.8645 C16.1982478,18.554125 16.6829455,17.884875 17.0241252,17.520375 C17.305722,17.53525 17.5512231,17.56025 17.77744,17.58325 C18.0560701,17.611625 18.3192482,17.638375 18.5837861,17.638375 C19.794356,17.638375 20.7010781,16.99675 21.1368239,15.831875 C21.2044418,15.65125 21.3646479,15.524875 21.5550162,15.502125 C23.0558361,15.3225 25.8493066,14.98825 25.8493066,11.80275 C25.8493066,9.276375 24.4442891,7.17525 21.8931056,5.8865 C19.4582445,4.6565 16.8914854,4.561 16.16277,4.561 C11.7365816,4.561 6.92050874,7.932625 6.27943704,14.37675 C6.00624605,17.12325 6.8803336,19.752375 8.74062825,21.77975 C9.22062853,22.302875 9.41767216,23.0305 9.26933317,23.72925 L5.7817597,38.125 L2.67739531,38.125 L5.81402343,24.38075 L6.04852266,23.35325 L5.30200665,22.616875 C3.07877591,20.424125 1.85448471,17.55325 1.85448471,14.533125 C1.85448471,10.590125 2.6703492,7.711125 4.34880497,5.7315 C5.36529796,4.5325 6.69416815,3.637875 8.41131568,2.99625 C10.4023959,2.25225 12.907718,1.875 15.8574389,1.875 C19.0886332,1.875 21.8897679,3.223 23.958108,5.77325 C25.9978929,8.288375 27.2412209,11.887375 27.459032,15.90725 L27.4797995,16.291875 L27.6489059,16.637 L30.2128219,21.87 L28.7011239,21.87 L28.7011239,21.870125 Z" id="Shape"></path>
                        <path d="M6.91126532,5.49019608 C6.72478827,5.49019608 6.53644894,5.545794 6.3726918,5.66156123 C6.23475839,5.75916648 2.9931368,8.10169231 3.14224395,12.4384539 C3.1596253,12.9392058 3.57280479,13.3333333 4.07227027,13.3333333 C4.08307154,13.3333333 4.0938728,13.3332098 4.10479822,13.3328391 C4.61878954,13.3151713 5.02116777,12.8864496 5.00353812,12.3749487 C4.88969028,9.06440124 7.33921896,7.253268 7.45381171,7.17061242 C7.87083993,6.87371951 7.96817549,6.29673662 7.67107857,5.88036995 C7.48956763,5.62597856 7.20265122,5.49019608 6.91126532,5.49019608 Z" id="Shape"></path>
                        <circle id="Oval" cx="9.01960784" cy="5.88235294" r="1.17647059"></circle>
                    </g>
                </g>
            </g>
        </g>
    </g>
</svg>