<?xml version="1.0" encoding="utf-8"?>
<svg fill="#321F40" version="1.1" id="Calque_1" xmlns="http://www.w3.org/2000/svg" xmlns:xlink="http://www.w3.org/1999/xlink" x="0px" y="0px" viewBox="0 0 33 55.3" style="enable-background:new 0 0 33 55.3;" xml:space="preserve">
  <path id="Shape" class="st0" d="M10.8,55.3H13c0.7,0,1.3-0.5,1.4-1.1l0.8-3.5h6.5c3,0,5.5-2.3,6.1-5.6c0.3-1.9,0.6-4,0.9-6h1.9
    c0.6,0,1.1-0.3,1.3-0.9c0.3-0.5,0.3-1.2,0-1.7l-2.6-5.3c-0.5-8.8-5.5-15.8-13.5-15.8C2.6,15.3,0,22.5,0,29.9c0,3.6,1.5,7,4,9.4
    L0.7,53.8c-0.1,0.4,0,0.8,0.2,1.1s0.6,0.5,1,0.5h5.3 M24,27.1 M12.4,53.5H2.7l3.1-13.7l0.2-1L5.3,38c-2.2-2.2-3.4-5.1-3.4-8.1
    c0-3.9,0.8-6.8,2.5-8.8c1-1.2,2.3-2.1,4.1-2.7c2-0.7,4.5-1.1,7.4-1.1c3.2,0,6,1.3,8.1,3.9c2,2.5,3.3,6.1,3.5,10.1l0,0.4
    l0.2,0.3l2.6,5.2h-1.5v0h-1.6l-0.2,1.6c-0.2,1.7-0.6,3.7-0.9,6c-0.4,2.3-2.2,4-4.2,4h-6.5l-0.6,0c-0.5,0-0.9,0.3-1.1,0.8
    L12.4,53.5z"/>
  <path id="Shape_1_" class="st0" d="M6.9,20.8c-0.2,0-0.4,0.1-0.5,0.2c-0.1,0.1-3.4,2.4-3.2,6.8c0,0.5,0.4,0.9,0.9,0.9
    c0,0,0,0,0,0c0.5,0,0.9-0.4,0.9-1c-0.1-3.3,2.3-5.1,2.5-5.2c0.4-0.3,0.5-0.9,0.2-1.3C7.5,21,7.2,20.8,6.9,20.8z"/>
  <circle id="Oval" class="st0" cx="10" cy="20.2" r="1.2"/>
  <path class="st0" d="M15.6,13.1c-0.1,0-0.2,0-0.3,0c-0.4-0.1-0.6-0.6-0.4-1l1.7-4.7l-4-0.1l3.2-5.5c0.2-0.4,0.7-0.5,1-0.3
    c0.4,0.2,0.5,0.7,0.3,1l-1.9,3.4L18.7,6l-2.4,6.6C16.2,12.9,15.9,13.1,15.6,13.1z"/>
</svg>
