<?xml version="1.0" encoding="UTF-8"?>
<svg fill="#321F40" width="35px" height="26px" viewBox="0 0 35 26" version="1.1" xmlns="http://www.w3.org/2000/svg" xmlns:xlink="http://www.w3.org/1999/xlink">

  <path d="M31.1349353,12.277096 C28.7404369,9.279192 26.0136084,7.489352 23.8407767,7.489352 C23.1131392,7.489352 22.4444013,7.759856 21.9066019,8.271536 C21.4775405,8.67984 21.1359223,9.237072 20.8641909,9.905896 L19.8903074,8.862672 L19.8903074,1.173432 C19.8903074,0.559 18.8061003,0.061776 17.4687379,0.061776 C16.1313754,0.061776 15.0471683,0.559 15.0471683,1.173432 L15.0471683,8.862672 L14.0731715,9.906 C13.8013269,9.23728 13.4597087,8.679944 13.0306472,8.271744 C12.4928479,7.75996 11.82411,7.48956 11.0964725,7.48956 C8.92352751,7.48956 6.1968123,9.2794 3.80242718,12.277304 C1.42140777,15.258048 0,18.683912 0,21.441264 C0,23.861552 3.74885113,25.984816 8.02236246,25.984816 C12.5123301,25.984816 14.9350324,23.64388 14.9350324,21.441264 C14.9350324,20.458256 15.2695146,15.810704 14.716877,12.366016 L17.4685113,9.418448 L20.2202589,12.36612 C19.6677346,15.809768 20.0021036,20.460232 20.0021036,21.441264 C20.0021036,23.64388 22.4249191,25.984816 26.9147735,25.984816 C31.1882848,25.984816 34.9371359,23.861656 34.9371359,21.441264 C34.9372492,18.683912 33.5158414,15.257944 31.1349353,12.277096 Z M13.2360032,21.441264 C13.2360032,22.887592 11.408754,24.424816 8.02236246,24.424816 C4.35415858,24.424712 1.69902913,22.642568 1.69902913,21.441264 C1.69902913,19.003712 2.99754045,15.922712 5.172411,13.19968 C7.18610032,10.678512 9.51150485,9.049456 11.0964725,9.049456 C11.3666181,9.049456 11.5860194,9.14368 11.8079126,9.355008 C13.8916019,11.337768 13.2360032,20.137208 13.2360032,21.441264 Z M26.9148867,24.424712 C23.5284951,24.424712 21.701246,22.887592 21.701246,21.44116 C21.701246,20.181304 21.0416828,11.341408 23.1292233,9.354696 C23.3512298,9.143472 23.5705178,9.049248 23.8406634,9.049248 C25.4256311,9.049248 27.7510356,10.678304 29.7648382,13.199576 C31.9397087,15.922608 33.2382201,19.003504 33.2382201,21.441056 C33.2382201,22.642568 30.5830906,24.424712 26.9148867,24.424712 Z" id="Shape"></path>
  <ellipse id="Oval" cx="5.21375405" cy="16.90416" rx="1" ry="1"></ellipse>
  <path d="M9.58546926,10.720736 C9.49576052,10.761296 7.37084142,11.747944 5.72244337,14.639144 C5.50485437,15.020824 5.66535599,15.492152 6.08105178,15.691936 C6.4984466,15.892448 7.01087379,15.742896 7.2276699,15.362672 C8.59346278,12.967344 10.3054045,12.135032 10.3415372,12.117768 C10.758932,11.925888 10.9297411,11.460384 10.7230259,11.07548 C10.5156311,10.68912 10.0064887,10.529896 9.58546926,10.720736 Z" id="Shape"></path>
</svg>
