<?xml version="1.0" encoding="utf-8"?>
<svg fill="#321F40" version="1.1" xmlns="http://www.w3.org/2000/svg" xmlns:xlink="http://www.w3.org/1999/xlink" x="0px" y="0px" viewBox="0 0 1000 1000" enable-background="new 0 0 1000 1000" xml:space="preserve">
<g><path d="M807.4,165.1H402.6c-23.5,0-42.6-19.1-42.6-42.6S379.1,80,402.6,80h404.9c23.5,0,42.6,19.1,42.6,42.6S830.9,165.1,807.4,165.1z"/><path d="M947.4,305.1H612.6c-23.5,0-42.6-19.1-42.6-42.6s19.1-42.6,42.6-42.6h334.9c23.5,0,42.6,19.1,42.6,42.6S970.9,305.1,947.4,305.1z"/><path d="M192.6,305.1h-140c-23.5,0-42.6-19.1-42.6-42.6S29.1,220,52.6,220h140c23.5,0,42.6,19.1,42.6,42.6S216.1,305.1,192.6,305.1z"/><path d="M402.6,445.1h-350c-23.5,0-42.6-19.1-42.6-42.6c0-23.5,19.1-42.6,42.6-42.6h350c23.5,0,42.6,19.1,42.6,42.6C445.1,426.1,426.1,445.1,402.6,445.1z"/><path d="M402.6,305.1c-62.1,0-112.6-50.5-112.6-112.6S340.5,80,402.6,80c23.5,0,42.6,19.1,42.6,42.6c0,23.5-19.1,42.6-42.6,42.6c-15.1,0-27.4,12.3-27.4,27.4c0,15.1,12.3,27.4,27.4,27.4c23.5,0,42.6,19.1,42.6,42.6C445.1,286.1,426.1,305.1,402.6,305.1z"/><path d="M402.6,445.1c-23.5,0-42.6-19.1-42.6-42.6c0-23.5,19.1-42.6,42.6-42.6c15.1,0,27.4-12.3,27.4-27.4c0-15.1-12.3-27.4-27.4-27.4c-23.5,0-42.6-19.1-42.6-42.6c0-23.5,19.1-42.6,42.6-42.6c62.1,0,112.6,50.5,112.6,112.6C515.1,394.6,464.6,445.1,402.6,445.1z"/><path d="M807.4,640H612.6c-23.5,0-42.6-19.1-42.6-42.6c0-23.5,19.1-42.6,42.6-42.6h194.9c23.5,0,42.6,19.1,42.6,42.6C850,620.9,830.9,640,807.4,640z"/><path d="M947.4,780H822.6c-23.5,0-42.6-19.1-42.6-42.6c0-23.5,19.1-42.6,42.6-42.6h124.9c23.5,0,42.6,19.1,42.6,42.6C990,760.9,970.9,780,947.4,780z"/><path d="M317.4,780H52.6C29.1,780,10,760.9,10,737.4c0-23.5,19.1-42.6,42.6-42.6h264.9c23.5,0,42.6,19.1,42.6,42.6C360,760.9,340.9,780,317.4,780z"/><path d="M612.6,920h-560C29.1,920,10,900.9,10,877.4c0-23.5,19.1-42.6,42.6-42.6h560c23.5,0,42.6,19.1,42.6,42.6C655.1,900.9,636.1,920,612.6,920z"/><path d="M612.6,780C550.5,780,500,729.5,500,667.4s50.5-112.6,112.6-112.6c23.5,0,42.6,19.1,42.6,42.6c0,23.5-19.1,42.6-42.6,42.6c-15.1,0-27.4,12.3-27.4,27.4s12.3,27.4,27.4,27.4c23.5,0,42.6,19.1,42.6,42.6C655.1,760.9,636.1,780,612.6,780z"/><path d="M612.6,920c-23.5,0-42.6-19.1-42.6-42.6c0-23.5,19.1-42.6,42.6-42.6c15.1,0,27.4-12.3,27.4-27.4c0-15.1-12.3-27.4-27.4-27.4c-23.5,0-42.6-19.1-42.6-42.6c0-23.5,19.1-42.6,42.6-42.6c62.1,0,112.6,50.5,112.6,112.6S674.6,920,612.6,920z"/></g>
</svg>
