<?xml version="1.0" encoding="UTF-8"?>
<svg width="46px" height="44px" viewBox="0 0 46 44" version="1.1" xmlns="http://www.w3.org/2000/svg" xmlns:xlink="http://www.w3.org/1999/xlink">
    <!-- Generator: Sketch 51.2 (57519) - http://www.bohemiancoding.com/sketch -->
    <title>clean</title>
    <desc>Created with Sketch.</desc>
    <defs></defs>
    <g id="Page-1" stroke="none" stroke-width="1" fill="none" fill-rule="evenodd">
        <g id="SIGNALEMENT---ETAPE-03" transform="translate(-86.000000, -427.000000)" fill="#321F40" fill-rule="nonzero">
            <g id="//-SIGNALEMENT" transform="translate(30.000000, 142.000000)">
                <g id="::-partie-copy" transform="translate(43.000000, 281.000000)">
                    <g id="clean" transform="translate(13.000000, 4.000000)">
                        <path d="M45.8642855,24.63138 C45.7509008,24.4045369 45.4674391,24.2911153 45.2406698,24.2344045 C43.9367459,24.2344045 32.7116624,23.7807183 32.7116624,10.7372401 C32.7116624,10.3402647 32.3715084,10 31.974662,10 C31.5778156,10 31.2376616,10.3402647 31.2376616,10.7372401 C31.2376616,23.7807183 20.0125781,24.2344045 18.7653466,24.2344045 C18.5952696,24.2344045 18.4251926,24.2911153 18.3118079,24.4045369 C18.1984232,24.4612476 18.1417309,24.5746692 18.0850385,24.63138 C17.9716538,24.8582231 17.9716538,25.1417769 18.0850385,25.36862 C18.1984232,25.5954631 18.4818849,25.7655955 18.7653466,25.7655955 C18.7653466,25.7655955 18.7653466,25.7655955 18.8220389,25.7655955 C20.1259628,25.7655955 31.2943539,26.2192817 31.2943539,39.2627599 C31.2943539,39.6597353 31.634508,40 32.0313544,40 C32.4282007,40 32.7683548,39.6597353 32.7683548,39.2627599 C32.7683548,26.2759924 43.9367459,25.7655955 45.2406698,25.7655955 C45.5241315,25.7655955 45.7509008,25.5954631 45.9209779,25.36862 C46.0343625,25.1417769 46.0343625,24.8582231 45.8642855,24.63138 Z M31.974662,33.705104 C30.3305841,28.3175803 26.3054279,25.9924386 23.1306568,24.9716446 C26.3054279,23.9508507 30.3305841,21.6257089 31.974662,16.2381853 C33.6187399,21.6257089 37.6438961,23.9508507 40.8186672,24.9716446 C37.6438961,25.9924386 33.6187399,28.3175803 31.974662,33.705104 Z" id="Shape"></path>
                        <path d="M23.2431507,9.80425339 C23.6506849,9.80425339 24,9.45822092 24,8.99684429 C24,8.59313973 23.6506849,8.24710726 23.2431507,8.24710726 C22.5445205,8.24710726 16.2568493,8.01641895 16.2568493,0.749737024 C16.2568493,0.346032473 15.9075342,0 15.5,0 C15.0924658,0 14.7431507,0.346032473 14.7431507,0.749737024 C14.7431507,8.01641895 8.45547945,8.24710726 7.75684932,8.24710726 C7.69863014,8.24710726 7.69863014,8.24710726 7.69863014,8.24710726 C7.29109589,8.30477934 7,8.59313973 7,8.99684429 C7,9.40054884 7.34931507,9.74658131 7.75684932,9.74658131 C8.51369863,9.74658131 14.7431507,9.97726962 14.7431507,17.2439515 C14.7431507,17.6476561 15.0924658,17.9936886 15.5,17.9936886 C15.8493151,18.0513606 16.1986301,17.7053282 16.1986301,17.3016236 C16.1986301,10.0349417 22.4863014,9.80425339 23.1849315,9.80425339 L23.2431507,9.80425339 Z M15.4417808,13.0915619 C14.510274,10.9000229 12.8219178,9.68890923 11.25,8.99684429 C12.9383562,8.30477934 14.510274,6.97832153 15.4417808,4.90212669 C16.3732877,7.09366569 18.0616438,8.30477934 19.6335616,8.99684429 C17.9452055,9.68890923 16.3732877,11.015367 15.4417808,13.0915619 Z" id="Shape"></path>
                        <path d="M16.2431507,34.2397629 C15.5445205,34.2397629 9.25684932,34.00928 9.25684932,26.7490694 C9.25684932,26.3457243 8.90753425,26 8.5,26 C8.09246575,26 7.74315068,26.3457243 7.74315068,26.7490694 C7.74315068,34.00928 1.45547945,34.2397629 0.756849315,34.2397629 C0.698630137,34.2397629 0.698630137,34.2397629 0.698630137,34.2397629 C0.29109589,34.2973836 0,34.5854872 0,34.9888323 C0,35.3921773 0.349315068,35.7379016 0.756849315,35.7379016 C1.51369863,35.7379016 7.74315068,35.9683845 7.74315068,43.2285951 C7.74315068,43.6319402 8.09246575,43.9776645 8.5,43.9776645 C8.84931507,44.0929059 9.19863014,43.7471816 9.19863014,43.2862159 C9.19863014,36.0260052 15.4863014,35.7955223 16.1849315,35.7955223 L16.2431507,35.7955223 C16.6506849,35.7955223 17,35.449798 17,34.9888323 C17,34.5854872 16.6506849,34.2397629 16.2431507,34.2397629 Z M8.44178082,39.1375241 C7.45205479,36.9479367 5.82191781,35.7379016 4.25,35.046453 C5.93835616,34.3550043 7.51027397,33.0297278 8.44178082,30.9553819 C9.37328767,33.1449692 11.0616438,34.3550043 12.6335616,35.046453 C10.9452055,35.7379016 9.37328767,37.0631782 8.44178082,39.1375241 Z" id="Shape"></path>
                    </g>
                </g>
            </g>
        </g>
    </g>
</svg>