<?xml version="1.0" encoding="iso-8859-1"?>
<svg fill="#321F40" version="1.1" id="Capa_1" xmlns="http://www.w3.org/2000/svg" xmlns:xlink="http://www.w3.org/1999/xlink" x="0px" y="0px"
	 viewBox="0 0 205.599 205.599" style="enable-background:new 0 0 205.599 205.599;" xml:space="preserve">
<path d="M202.599,169.11h-57.297c-0.914,0-1.778-0.417-2.348-1.133c-0.569-0.715-0.781-1.651-0.575-2.542l6.101-26.437
	c0.527-2.282,2.531-3.876,4.872-3.876h41.197c2.344,0,4.348,1.595,4.873,3.878l6.1,26.435c0.206,0.891-0.006,1.827-0.575,2.542
	C204.377,168.693,203.513,169.11,202.599,169.11z M149.073,163.11h49.754l-5.073-21.987h-39.607L149.073,163.11z M131.447,169.11
	H74.15c-0.914,0-1.778-0.417-2.348-1.133c-0.569-0.715-0.781-1.651-0.575-2.542l6.102-26.437c0.524-2.281,2.528-3.876,4.871-3.876
	h41.198c2.343,0,4.347,1.595,4.872,3.878l6.1,26.435c0.206,0.891-0.006,1.827-0.575,2.542
	C133.226,168.693,132.361,169.11,131.447,169.11z M77.922,163.11h49.754l-5.073-21.987H82.996L77.922,163.11z M60.297,169.11H3
	c-0.914,0-1.778-0.417-2.348-1.133c-0.569-0.715-0.781-1.651-0.575-2.542l6.101-26.437c0.524-2.281,2.528-3.876,4.871-3.876h41.198
	c2.343,0,4.347,1.595,4.872,3.878l6.101,26.435c0.206,0.891-0.006,1.827-0.575,2.542C62.075,168.693,61.211,169.11,60.297,169.11z
	 M6.771,163.11h49.754l-5.074-21.987H11.845L6.771,163.11z M167.103,119.792h-57.297c-0.914,0-1.778-0.417-2.348-1.133
	c-0.569-0.715-0.781-1.651-0.575-2.542l6.101-26.437c0.528-2.282,2.531-3.875,4.872-3.875h41.197c2.341,0,4.344,1.593,4.872,3.873
	l6.101,26.438c0.206,0.891-0.006,1.827-0.575,2.542C168.881,119.375,168.017,119.792,167.103,119.792z M113.577,113.792h49.754
	l-5.073-21.986H118.65L113.577,113.792z M95.793,119.792H38.496c-0.914,0-1.778-0.417-2.348-1.133
	c-0.569-0.715-0.781-1.651-0.575-2.542l6.101-26.437c0.528-2.282,2.531-3.875,4.872-3.875h41.197c2.341,0,4.345,1.593,4.872,3.873
	l6.101,26.438c0.206,0.891-0.006,1.827-0.575,2.542C97.571,119.375,96.707,119.792,95.793,119.792z M42.268,113.792h49.754
	l-5.073-21.986H47.341L42.268,113.792z M131.467,70.476c-0.005,0-0.013,0-0.02,0H74.15c-0.914,0-1.778-0.417-2.348-1.133
	c-0.569-0.715-0.781-1.651-0.575-2.542l6.102-26.438c0.525-2.281,2.528-3.875,4.871-3.875h41.198c2.343,0,4.346,1.594,4.872,3.876
	l6.022,26.102c0.113,0.315,0.174,0.655,0.174,1.01C134.467,69.133,133.124,70.476,131.467,70.476z M77.922,64.476h49.754
	l-5.073-21.987H82.996L77.922,64.476z"/>
</svg>
