<?xml version="1.0" encoding="UTF-8"?>
<svg width="33px" height="40px" viewBox="0 0 33 40" version="1.1" xmlns="http://www.w3.org/2000/svg" xmlns:xlink="http://www.w3.org/1999/xlink">
    <!-- Generator: Sketch 51.2 (57519) - http://www.bohemiancoding.com/sketch -->
    <title>thorat</title>
    <desc>Created with Sketch.</desc>
    <defs></defs>
    <g id="Page-1" stroke="none" stroke-width="1" fill="none" fill-rule="evenodd">
        <g id="SIGNALEMENT---ETAPE-03" transform="translate(-158.000000, -280.000000)" fill="#321F40" fill-rule="nonzero">
            <g id="//-SIGNALEMENT" transform="translate(30.000000, 142.000000)">
                <g id="::-partie" transform="translate(41.000000, 56.000000)">
                    <g id="thorat" transform="translate(87.000000, 82.000000)">
                        <path d="M13.5154423,28.7237555 L10.9090909,40 L13.0694952,40 C13.74239,40 14.3262665,39.5441735 14.4776464,38.9005197 L15.2827235,35.4764203 L21.7919379,35.4764203 C24.7566856,35.4764203 27.3033655,33.2040089 27.8407765,30.0703519 C28.0118431,29.0712062 28.1903687,27.9974096 28.3636364,26.9090909 L15.8306503,26.9090909 C14.7144985,26.9089709 13.7624435,27.6552397 13.5154423,28.7237555 Z M25.8390888,29.7395837 C25.4669974,31.9092601 23.7648903,33.4841298 21.7918157,33.4841298 L15.2826012,33.4841298 C14.9906018,33.4841298 14.7105856,33.5452187 14.4567369,33.6563549 L15.4948755,29.1646999 C15.5318034,29.0048365 15.6636188,28.9015015 15.8306503,28.9015015 L25.9812979,28.9015015 C25.9345877,29.1788619 25.887144,29.4583827 25.8390888,29.7395837 Z" id="Shape"></path>
                        <path d="M32.4880812,21.1345151 L29.8302895,15.8045669 C29.3424086,6.95657559 24.2470823,0 16.1387112,0 C2.60169905,0 0,7.18520009 0,14.5331372 C0,18.1621488 1.55713034,21.5158449 4.07818071,23.9590061 L0.719605625,38.4195681 C0.63060538,38.8027556 0.72234793,39.2052636 0.968656732,39.5130273 C1.21496553,39.8207911 1.58916545,40 1.98492984,40 L8.174685,40 L10.9700905,27.7571948 C11.5088286,25.3978791 13.5857503,23.7499497 16.0207921,23.7499497 L29.2094069,23.7499497 C29.2096562,23.7483397 29.2099055,23.7467296 29.2101548,23.7451196 L31.1604319,23.7451196 C31.7303326,23.7451196 32.2553592,23.4083753 32.5313348,22.8656707 C32.8073103,22.3229662 32.7907319,21.6601285 32.4880812,21.1345151 Z M29.2101548,21.6892329 C29.1624137,21.6892329 29.1147974,21.6908429 29.0678042,21.694063 L16.0207921,21.694063 C12.6128555,21.694063 9.7061374,24.0002477 8.95212832,27.3024228 L6.5223219,37.9441133 L2.95358657,37.9441133 L6.09439776,24.4214568 C6.25681697,23.7218361 6.04029957,22.9887762 5.52300122,22.4874371 C3.29575138,20.3290038 2.06919338,17.5041412 2.06919338,14.5332611 C2.06919338,10.6353743 2.88527826,7.79478288 4.56394256,5.84936915 C5.57772266,4.67441752 6.90562128,3.79670253 8.62342574,3.16606548 C10.6297954,2.42941404 13.1583248,2.05601053 16.1388358,2.05601053 C19.3710156,2.05601053 22.1731522,3.38106665 24.2423455,5.88813376 C26.2939633,8.37377506 27.544828,11.9355368 27.7643371,15.9172691 C27.779669,16.1955569 27.8518415,16.4677761 27.976367,16.7174549 L30.4555349,21.6893568 L29.2101548,21.6893568 L29.2101548,21.6892329 Z" id="Shape"></path>
                        <path d="M7.71915672,5.09090909 C7.51742247,5.09090909 7.31367355,5.14761897 7.1365181,5.26570155 C6.98729922,5.3652589 3.48045406,7.75463525 3.64176088,12.178132 C3.66056434,12.688899 4.10754943,13.0909091 4.64788026,13.0909091 C4.65956527,13.0909091 4.67125028,13.0907831 4.68306959,13.090405 C5.23911475,13.0723839 5.67441483,12.6350877 5.65534275,12.1133568 C5.53204578,8.73659835 8.18212475,6.88924245 8.30609327,6.80493376 C8.75724199,6.50210299 8.86254136,5.91358044 8.54113651,5.48888644 C8.34464036,5.22940722 8.03438329,5.09090909 7.71915672,5.09090909 Z" id="Shape"></path>
                        <ellipse id="Oval" cx="10.1818182" cy="4.72727273" rx="1" ry="1.09090909"></ellipse>
                    </g>
                </g>
            </g>
        </g>
    </g>
</svg>