<?xml version="1.0" encoding="UTF-8"?>
<svg width="21px" height="24px" viewBox="0 0 21 24" version="1.1" xmlns="http://www.w3.org/2000/svg" xmlns:xlink="http://www.w3.org/1999/xlink">
    <!-- Generator: Sketch 51.2 (57519) - http://www.bohemiancoding.com/sketch -->
    <title>avatar</title>
    <desc>Created with Sketch.</desc>
    <defs></defs>
    <g id="Page-1" stroke="none" stroke-width="1" fill="none" fill-rule="evenodd">
        <g id="DÉTAIL---02" transform="translate(-270.000000, -631.000000)" fill="#321F40" fill-rule="nonzero">
            <g id="//-MENU" transform="translate(0.000000, 605.000000)">
                <g id="::-icones" transform="translate(83.000000, 26.000000)">
                    <g id="avatar" transform="translate(187.000000, 0.000000)">
                        <path d="M10.1217391,12.9291925 C10.1465839,12.9291925 10.1714286,12.9291925 10.2012422,12.9291925 C10.2111801,12.9291925 10.221118,12.9291925 10.2310559,12.9291925 C10.2459627,12.9291925 10.2658385,12.9291925 10.2807453,12.9291925 C11.736646,12.9043478 12.9142857,12.3925466 13.7838509,11.4136646 C15.6968944,9.25714286 15.378882,5.56024845 15.3440994,5.20745342 C15.2198758,2.55900621 13.9677019,1.29192547 12.9341615,0.700621118 C12.1639752,0.258385093 11.2645963,0.0198757764 10.2608696,0 L10.226087,0 C10.221118,0 10.2111801,0 10.2062112,0 L10.1763975,0 C9.62484472,0 8.54161491,0.0894409938 7.50310559,0.680745342 C6.45962733,1.27204969 5.18757764,2.53913043 5.06335404,5.20745342 C5.02857143,5.56024845 4.71055901,9.25714286 6.62360248,11.4136646 C7.48819876,12.3925466 8.66583851,12.9043478 10.1217391,12.9291925 Z M6.39006211,5.33167702 C6.39006211,5.31677019 6.39503106,5.30186335 6.39503106,5.29192547 C6.55900621,1.72919255 9.08819876,1.34658385 10.1714286,1.34658385 L10.1913043,1.34658385 C10.2012422,1.34658385 10.2161491,1.34658385 10.2310559,1.34658385 C11.5726708,1.37639752 13.8534161,1.92298137 14.0074534,5.29192547 C14.0074534,5.3068323 14.0074534,5.32173913 14.0124224,5.33167702 C14.0173913,5.36645963 14.3652174,8.74534161 12.7850932,10.5242236 C12.1590062,11.2298137 11.3242236,11.5776398 10.226087,11.5875776 C10.2161491,11.5875776 10.2111801,11.5875776 10.2012422,11.5875776 C10.1913043,11.5875776 10.1863354,11.5875776 10.1763975,11.5875776 C9.08322981,11.5776398 8.24347826,11.2298137 7.62236025,10.5242236 C6.04720497,8.7552795 6.38509317,5.36149068 6.39006211,5.33167702 Z" id="Shape"></path>
                        <path d="M20.4124224,19.0608696 C20.4124224,19.0559006 20.4124224,19.0509317 20.4124224,19.0459627 C20.4124224,19.0062112 20.4074534,18.9664596 20.4074534,18.9217391 C20.3776398,17.9378882 20.3130435,15.6372671 18.1565217,14.9018634 C18.1416149,14.8968944 18.1217391,14.8919255 18.1068323,14.8869565 C15.8658385,14.315528 14.0024845,13.0236025 13.9826087,13.0086957 C13.6795031,12.7950311 13.2621118,12.8695652 13.0484472,13.1726708 C12.8347826,13.4757764 12.9093168,13.8931677 13.2124224,14.1068323 C13.2968944,14.1664596 15.2745342,15.5428571 17.7490683,16.178882 C18.9068323,16.5913043 19.0360248,17.8285714 19.0708075,18.9614907 C19.0708075,19.0062112 19.0708075,19.0459627 19.0757764,19.0857143 C19.0807453,19.5329193 19.0509317,20.2236025 18.9714286,20.621118 C18.1664596,21.0782609 15.0111801,22.6583851 10.2111801,22.6583851 C5.4310559,22.6583851 2.25590062,21.0732919 1.44596273,20.6161491 C1.36645963,20.2186335 1.33167702,19.5279503 1.34161491,19.0807453 C1.34161491,19.0409938 1.34658385,19.0012422 1.34658385,18.9565217 C1.38136646,17.8236025 1.51055901,16.5863354 2.66832298,16.173913 C5.14285714,15.5378882 7.12049689,14.1565217 7.20496894,14.1018634 C7.50807453,13.8881988 7.5826087,13.4708075 7.3689441,13.1677019 C7.1552795,12.8645963 6.7378882,12.7900621 6.43478261,13.0037267 C6.41490683,13.0186335 4.56149068,14.310559 2.31055901,14.8819876 C2.29068323,14.8869565 2.2757764,14.8919255 2.26086957,14.8968944 C0.104347826,15.6372671 0.0397515528,17.9378882 0.0099378882,18.9167702 C0.0099378882,18.9614907 0.0099378882,19.0012422 0.0049689441,19.0409938 C0.0049689441,19.0459627 0.0049689441,19.0509317 0.0049689441,19.0559006 C-3.39485384e-15,19.3142857 -0.0049689441,20.6409938 0.258385093,21.3068323 C0.308074534,21.4360248 0.397515528,21.5453416 0.516770186,21.6198758 C0.665838509,21.7192547 4.23850932,23.9950311 10.2161491,23.9950311 C16.1937888,23.9950311 19.7664596,21.7142857 19.915528,21.6198758 C20.0298137,21.5453416 20.1242236,21.4360248 20.173913,21.3068323 C20.4223602,20.6459627 20.4173913,19.3192547 20.4124224,19.0608696 Z" id="Shape"></path>
                    </g>
                </g>
            </g>
        </g>
    </g>
</svg>