<?xml version="1.0" encoding="UTF-8"?>
<svg width="20px" height="14px" viewBox="0 0 20 14" version="1.1" xmlns="http://www.w3.org/2000/svg" xmlns:xlink="http://www.w3.org/1999/xlink">
    <!-- Generator: Sketch 51.2 (57519) - http://www.bohemiancoding.com/sketch -->
    <title>Shape</title>
    <desc>Created with Sketch.</desc>
    <defs></defs>
    <g id="Page-1" stroke="none" stroke-width="1" fill="none" fill-rule="evenodd">
        <g id="DÉTAIL---02" transform="translate(-30.000000, -30.000000)" fill="#1B1B1B" fill-rule="nonzero">
            <g id="//-DÉTAIL" transform="translate(0.000000, -12.000000)">
                <g id="::-back" transform="translate(40.000000, 48.684211) rotate(-180.000000) translate(-40.000000, -48.684211) translate(30.000000, 41.684211)">
                    <path d="M19.7275999,6.18828575 L13.7759385,0.270781305 C13.4128128,-0.0902604349 12.8238959,-0.0902604349 12.4607702,0.270781305 C12.09757,0.631897013 12.09757,1.21728614 12.4607702,1.57840185 L16.8249003,5.91748595 L0.929947086,5.91748595 C0.416393107,5.91748595 0,6.33148935 0,6.84209602 C0,7.35262871 0.416393107,7.76670609 0.929947086,7.76670609 L16.8249003,7.76670609 L12.460919,12.1057902 C12.0977188,12.4669059 12.0977188,13.052295 12.460919,13.4134107 C12.6424446,13.5938206 12.8805111,13.6842105 13.1185032,13.6842105 C13.3564952,13.6842105 13.5944873,13.5938206 13.7760873,13.4134107 L19.7275999,7.49590629 C20.0908,7.13479058 20.0908,6.54940145 19.7275999,6.18828575 Z" id="Shape"></path>
                </g>
            </g>
        </g>
    </g>
</svg>