<?xml version="1.0" encoding="UTF-8"?>
<svg width="16px" height="16px" viewBox="0 0 16 16" version="1.1" xmlns="http://www.w3.org/2000/svg" xmlns:xlink="http://www.w3.org/1999/xlink">
    <!-- Generator: Sketch 51.2 (57519) - http://www.bohemiancoding.com/sketch -->
    <title>cross-remove-sign</title>
    <desc>Created with Sketch.</desc>
    <defs></defs>
    <g id="Page-1" stroke="none" stroke-width="1" fill="none" fill-rule="evenodd">
        <g id="SIGNALEMENT---ETAPE-02---00" transform="translate(-179.000000, -562.000000)" fill="#321F40" fill-rule="nonzero">
            <g id="//-SIGNALER">
                <g id="::-annuler" transform="translate(162.000000, 545.000000)">
                    <g id="cross-remove-sign" transform="translate(17.000000, 17.000000)">
                        <path d="M10.4764456,8.00008339 L15.9021446,2.57430242 C16.0323961,2.44405299 16.0323961,2.23291883 15.9021446,2.1026694 L13.897673,0.0977287652 C13.8351322,0.0351890264 13.7500769,0 13.6618528,0 C13.5734619,0 13.4885733,0.0351890264 13.4260326,0.0977287652 L8,5.5236765 L2.57396743,0.0977287652 C2.44888599,-0.0273507124 2.22740847,-0.0273507124 2.10232704,0.0977287652 L0.0976885993,2.1026694 C-0.0325628664,2.23291883 -0.0325628664,2.44405299 0.0976885993,2.57430242 L5.5235544,8.00008339 L0.0976885993,13.4258644 C-0.0325628664,13.5561138 -0.0325628664,13.7672479 0.0976885993,13.8974974 L2.10232704,15.9022712 C2.16486775,15.964811 2.24975635,16 2.33814723,16 C2.42653811,16 2.51142671,15.964811 2.57396743,15.9022712 L8,10.4763235 L13.4260326,15.9022712 C13.4885733,15.964811 13.5734619,16 13.6618528,16 C13.7500769,16 13.8351322,15.964811 13.897673,15.9022712 L15.9023114,13.8974974 C16.0325629,13.7672479 16.0325629,13.555947 15.9023114,13.4258644 L10.4764456,8.00008339 Z" id="Shape"></path>
                    </g>
                </g>
            </g>
        </g>
    </g>
</svg>