<?xml version="1.0" encoding="UTF-8"?>
<svg width="25px" height="25px" viewBox="0 0 25 25" version="1.1" xmlns="http://www.w3.org/2000/svg" xmlns:xlink="http://www.w3.org/1999/xlink">
    <!-- Generator: Sketch 51.2 (57519) - http://www.bohemiancoding.com/sketch -->
    <title>compass</title>
    <desc>Created with Sketch.</desc>
    <defs></defs>
    <g id="Page-1" stroke="none" stroke-width="1" fill="none" fill-rule="evenodd">
        <g id="HOME" transform="translate(-42.000000, -44.000000)" fill="#321F40" fill-rule="nonzero">
            <g id="//-LOCATE" transform="translate(29.000000, 31.000000)">
                <g id="compass" transform="translate(13.000000, 13.000000)">
                    <path d="M21.3388672,3.66113281 C18.9778809,1.30024414 15.838916,0 12.5,0 C9.16108398,0 6.02211914,1.30024414 3.66113281,3.66113281 C1.30024414,6.02211914 0,9.16108398 0,12.5 C0,15.838916 1.30024414,18.9778809 3.66113281,21.3388672 C6.02211914,23.6997559 9.16108398,25 12.5,25 C15.838916,25 18.9778809,23.6997559 21.3388672,21.3388672 C23.6997559,18.9778809 25,15.838916 25,12.5 C25,9.16108398 23.6997559,6.02211914 21.3388672,3.66113281 Z M12.5,24.0215332 C6.14702148,24.0215332 0.978466797,18.8529785 0.978466797,12.5 C0.978466797,6.14702148 6.14702148,0.978466797 12.5,0.978466797 C18.8529785,0.978466797 24.0215332,6.14702148 24.0215332,12.5 C24.0215332,18.8529785 18.8529785,24.0215332 12.5,24.0215332 Z" id="Shape"></path>
                    <path d="M21.9997982,12.5198542 C21.9997982,12.5132606 21.9999935,12.5066181 21.9999935,12.4999756 C21.9999935,7.26169183 17.738341,3 12.4999968,3 C7.26165249,3 3,7.26169183 3,12.4999756 C3,17.7378198 7.26096871,21.9992674 12.4987269,21.9999512 C12.4991665,21.9999512 12.4995572,22 12.4999968,22 C12.5003875,22 12.5007782,21.9999512 12.501169,21.9999512 C14.4010218,21.9997069 16.234645,21.4404683 17.8039357,20.3825547 C18.0280224,20.231487 18.0872189,19.9273491 17.9361508,19.703214 C17.7850339,19.479079 17.4808953,19.4199316 17.2568086,19.5709993 C15.9846232,20.4286126 14.5183401,20.9206449 12.9893439,21.0072414 L12.9893439,18.5821481 C12.9893439,18.3118575 12.7702391,18.0927532 12.4999479,18.0927532 C12.2296568,18.0927532 12.0105519,18.3118575 12.0105519,18.5821481 L12.0105519,21.006753 C7.70919097,20.7619579 4.25191598,17.3123588 3.99461677,13.0142798 L6.41844566,13.0142798 C6.68873682,13.0142798 6.90784166,12.7951755 6.90784166,12.5248849 C6.90784166,12.2545943 6.68873682,12.03549 6.41844566,12.03549 L3.99153973,12.03549 C4.22475987,7.71416232 7.69253587,4.23877474 12.0106496,3.99305161 L12.0106496,6.41819383 C12.0106496,6.68848439 12.2297545,6.90758873 12.5000456,6.90758873 C12.7703368,6.90758873 12.9894416,6.68848439 12.9894416,6.41819383 L12.9894416,3.99314929 C17.3075554,4.23887242 20.7752825,7.71430885 21.0085515,12.0356365 L18.5822805,12.0356365 C18.3119893,12.0356365 18.0928845,12.2547409 18.0928845,12.5250314 C18.0928845,12.795322 18.3119893,13.0144263 18.5822805,13.0144263 L21.005914,13.0144263 C20.9120399,14.5970474 20.3853775,16.1058685 19.4682729,17.4059397 C19.3124671,17.6268023 19.3652164,17.9321125 19.5860796,18.0879178 C19.8069915,18.2437232 20.1122535,18.190974 20.2680592,17.9701114 C21.3948911,16.3727401 21.9931557,14.4931609 21.9997005,12.5326019 C21.9997005,12.5300621 21.9999935,12.52762 21.9999935,12.5250803 C22.0000424,12.5232243 21.9997982,12.5215637 21.9997982,12.5198542 Z" id="Shape"></path>
                    <path d="M15.8570391,9.14364634 C15.7344902,9.02051054 15.5562682,8.97196098 15.3885184,9.01591008 L10.6126671,10.2699277 C10.6108162,10.2704172 10.6091114,10.2712491 10.6072606,10.2717386 C10.5693659,10.2821141 10.5326402,10.297139 10.4976679,10.3168622 C10.4934791,10.3192114 10.4894363,10.3217564 10.4852961,10.3242524 C10.4723886,10.331985 10.4598707,10.3404519 10.447645,10.349506 C10.4433587,10.3526382 10.4390724,10.3556725 10.4348348,10.3589516 C10.4209531,10.3699144 10.4075585,10.3816113 10.3946509,10.3942871 C10.3933845,10.3955106 10.3919719,10.3965873 10.3907543,10.3978598 C10.3905594,10.3980555 10.3903159,10.3982513 10.3900723,10.3984471 C10.3763367,10.4122974 10.3639162,10.4269308 10.3521777,10.4419557 C10.3491578,10.445822 10.3464301,10.4498841 10.3435564,10.4537994 C10.334448,10.4661815 10.3259241,10.4789062 10.3181309,10.4920224 C10.3155494,10.4963292 10.3130166,10.5005871 10.3105812,10.5049918 C10.3015215,10.5212892 10.2931925,10.5378313 10.2861298,10.5548628 C10.2856915,10.5558906 10.2851557,10.5568204 10.284766,10.5578482 C10.2771189,10.5766416 10.2707869,10.5958265 10.2655751,10.6152072 C10.2651855,10.6167243 10.2645036,10.6180457 10.2641139,10.6195629 L9.0160732,15.3848104 C8.97204132,15.553021 9.01992112,15.7320475 9.14198294,15.8553791 C9.23477135,15.9491502 9.35980435,16 9.48805206,16 C9.52857697,16 9.56934543,15.9949591 9.60957809,15.9845346 L14.3887416,14.749604 C14.3907386,14.7491146 14.3925408,14.7482336 14.3945378,14.7476953 C14.4326273,14.7374176 14.4695478,14.7223927 14.5046662,14.7027184 C14.5088551,14.7003692 14.5128978,14.6978243 14.5169893,14.6953772 C14.5299455,14.6876446 14.5425122,14.6791777 14.554884,14.6701236 C14.559219,14.6669425 14.5636027,14.6638592 14.5678889,14.6605312 C14.5814784,14.6498131 14.5946783,14.6383119 14.607391,14.6259298 C14.6089496,14.6244127 14.6107031,14.6230423 14.6122618,14.6214762 C14.612554,14.6211826 14.612895,14.6209378 14.6131385,14.6206442 C14.6268741,14.6067939 14.6392459,14.5922584 14.6509845,14.5772334 C14.6539557,14.573416 14.6566346,14.5694518 14.6595084,14.5654876 C14.6687142,14.5529097 14.6773354,14.5400872 14.6852261,14.5268731 C14.6877589,14.5226152 14.6902917,14.5184063 14.6927271,14.5140505 C14.7019816,14.4973616 14.7105055,14.480428 14.7177142,14.4630049 C14.7180065,14.4623198 14.7183474,14.4616835 14.7186397,14.4609983 C14.7263355,14.4420581 14.7326675,14.4227264 14.737928,14.4031989 C14.7383663,14.4016817 14.7389995,14.4002625 14.7394379,14.3986963 L15.9841178,9.61436178 C16.0279548,9.44590654 15.9795879,9.26678213 15.8570391,9.14364634 Z M10.1716177,14.8266373 L10.9924908,11.6924006 L13.3150262,14.0144109 L10.1716177,14.8266373 Z M14.0097459,13.3254671 L11.6856032,11.0018418 L14.8290116,10.1764503 L14.0097459,13.3254671 Z" id="Shape"></path>
                    <path d="M18.5049407,17 L18.4950593,17 C18.2216403,17 18,17.2238523 18,17.5 C18,17.7761477 18.2216403,18 18.4950593,18 L18.5049407,18 C18.7783597,18 19,17.7761477 19,17.5 C19,17.2238523 18.7783597,17 18.5049407,17 Z" id="Shape"></path>
                </g>
            </g>
        </g>
    </g>
</svg>