<?xml version="1.0" encoding="UTF-8"?>
<svg fill="#321F40" width="5px" height="8px" viewBox="0 0 5 8" version="1.1" xmlns="http://www.w3.org/2000/svg" xmlns:xlink="http://www.w3.org/1999/xlink">
    <g id="Page-1" stroke="none" stroke-width="1" fill-rule="evenodd">
        <g id="HOME" transform="translate(-342.000000, -435.000000)" fill-rule="nonzero">
            <g id="//-DERNIERS-SIGNALEMENTS" transform="translate(-188.000000, 429.000000)">
                <g id="::-titre" transform="translate(219.000000, 0.000000)">
                    <g id="::-dropdown" transform="translate(311.000000, 6.000000)">
                        <g id="arrow-down-sign-to-navigate-copie" transform="translate(0.000000, 5.000000)">
                            <path d="M2.4999917,3 C2.41038152,3 2.32078241,2.96398586 2.25246268,2.892109 L0.102570898,0.629158408 C-0.0341902993,0.485206676 -0.0341902993,0.251813616 0.102570898,0.107920121 C0.239276767,-0.0359733738 0.460967343,-0.0359733738 0.597739606,0.107920121 L2.4999917,2.11030398 L4.40225486,0.107990006 C4.53901606,-0.0359034886 4.7606845,-0.0359034886 4.89737931,0.107990006 C5.0342069,0.251883501 5.0342069,0.485276561 4.89737931,0.629228293 L2.74752073,2.89217888 C2.67916779,2.96406739 2.58956868,3 2.4999917,3 Z" id="Shape"></path>
                        </g>
                        <g id="arrow-down-sign-to-navigate-copie-copy" transform="translate(2.500000, 1.500000) scale(1, -1) translate(-2.500000, -1.500000) ">
                            <path d="M2.4999917,3 C2.41038152,3 2.32078241,2.96398586 2.25246268,2.892109 L0.102570898,0.629158408 C-0.0341902993,0.485206676 -0.0341902993,0.251813616 0.102570898,0.107920121 C0.239276767,-0.0359733738 0.460967343,-0.0359733738 0.597739606,0.107920121 L2.4999917,2.11030398 L4.40225486,0.107990006 C4.53901606,-0.0359034886 4.7606845,-0.0359034886 4.89737931,0.107990006 C5.0342069,0.251883501 5.0342069,0.485276561 4.89737931,0.629228293 L2.74752073,2.89217888 C2.67916779,2.96406739 2.58956868,3 2.4999917,3 Z" id="Shape"></path>
                        </g>
                    </g>
                </g>
            </g>
        </g>
    </g>
</svg>
