<?xml version="1.0" encoding="UTF-8"?>
<svg fill="#321F40" width="30px" height="30px" viewBox="0 0 30 30" version="1.1" xmlns="http://www.w3.org/2000/svg" xmlns:xlink="http://www.w3.org/1999/xlink">
    <g id="Page-1" stroke="none" stroke-width="1" fill-rule="evenodd">
        <g id="HOME" transform="translate(-39.000000, -41.000000)" fill-rule="nonzero">
            <g id="//-LOCATE" transform="translate(29.000000, 31.000000)">
                <g id="gps" transform="translate(10.000000, 10.000000)">
                    <path d="M15,10.6451613 C12.5992396,10.6451613 10.6451613,12.5986175 10.6451613,15 C10.6451613,17.4013825 12.5992396,19.3548387 15,19.3548387 C17.4007604,19.3548387 19.3548387,17.4013825 19.3548387,15 C19.3548387,12.5986175 17.4007604,10.6451613 15,10.6451613 Z M15,16.8663594 C13.9710138,16.8663594 13.1336406,16.0289862 13.1336406,15 C13.1336406,13.9710138 13.9710138,13.1336406 15,13.1336406 C16.0289862,13.1336406 16.8663594,13.9710138 16.8663594,15 C16.8663594,16.0289862 16.0289862,16.8663594 15,16.8663594 Z" id="Shape"></path>
                    <path d="M28.75,13.75 L26.17625,13.75 C25.5975,8.544375 21.455625,4.4025 16.25,3.82375 L16.25,1.25 C16.25,0.56 15.69,0 15,0 C14.31,0 13.75,0.56 13.75,1.25 L13.75,3.82375 C8.544375,4.4025 4.4025,8.544375 3.82375,13.75 L1.25,13.75 C0.56,13.75 0,14.31 0,15 C0,15.69 0.56,16.25 1.25,16.25 L3.82375,16.25 C4.4025,21.455625 8.544375,25.5975 13.75,26.17625 L13.75,28.75 C13.75,29.44 14.31,30 15,30 C15.69,30 16.25,29.44 16.25,28.75 L16.25,26.17625 C21.455625,25.5975 25.5975,21.455625 26.17625,16.25 L28.75,16.25 C29.44,16.25 30,15.69 30,15 C30,14.31 29.44,13.75 28.75,13.75 Z M15,23.75 C10.175,23.75 6.25,19.825 6.25,15 C6.25,10.175 10.175,6.25 15,6.25 C19.825,6.25 23.75,10.175 23.75,15 C23.75,19.825 19.825,23.75 15,23.75 Z" id="Shape"></path>
                </g>
            </g>
        </g>
    </g>
</svg>
