<?xml version="1.0" encoding="UTF-8"?>
<svg width="35px" height="18px" viewBox="0 0 35 18" version="1.1" xmlns="http://www.w3.org/2000/svg" xmlns:xlink="http://www.w3.org/1999/xlink">
    <!-- Generator: Sketch 51.2 (57519) - http://www.bohemiancoding.com/sketch -->
    <title>human-eye</title>
    <desc>Created with Sketch.</desc>
    <defs></defs>
    <g id="Page-1" stroke="none" stroke-width="1" fill="none" fill-rule="evenodd">
        <g id="DÉTAIL---02" transform="translate(-225.000000, -35.000000)" fill="#FC3867" fill-rule="nonzero">
            <g id="//-DÉTAIL" transform="translate(0.000000, -12.000000)">
                <g id="::-item-copy-3" transform="translate(27.000000, 42.000000)">
                    <g id="::-symptomes" transform="translate(198.000000, 0.000000)">
                        <g id="human-eye" transform="translate(0.000000, 5.000000)">
                            <ellipse id="Oval" cx="17.4888785" cy="8.73710424" rx="1.89457944" ry="1.79880949"></ellipse>
                            <path d="M34.4493769,7.55270165 C33.3971963,6.58497196 31.1931776,4.71856219 28.2537227,3.09056506 C24.598785,1.06628325 20.9768847,0.0398562185 17.4888785,0.0398562185 C14.0006542,0.0398562185 10.3786449,1.06638677 6.7234891,3.09087563 C3.78425234,4.71887275 1.58023365,6.58528253 0.52805296,7.5529087 C0.192227415,7.86150971 -0.000218068345,8.29340618 1.90567176e-10,8.73741481 C1.90567176e-10,9.18121639 0.192663552,9.61290582 0.528380062,9.92161035 C1.58056075,10.8892365 3.78479751,12.7556463 6.72392523,14.3835399 C10.378972,16.4078217 14.0007632,17.4342487 17.4887695,17.4342487 C20.9769938,17.4342487 24.5991121,16.4077182 28.2542679,14.3832293 C31.1935047,12.7552322 33.3975234,10.8888224 34.4497041,9.92119626 C34.7854206,9.61259526 34.977866,9.18069878 34.977648,8.73669015 C34.977757,8.29288857 34.7852025,7.86130266 34.4493769,7.55270165 Z M33.3120405,8.8059468 C31.5070872,10.4657254 25.0320872,15.8815126 17.4888785,15.8815126 C9.94610592,15.8815126 3.47110592,10.4660359 1.66626168,8.80625737 C1.64674455,8.78834795 1.63551402,8.76319195 1.63551402,8.73710424 C1.63551402,8.71101653 1.64652648,8.68606758 1.66571651,8.66826168 C3.47066978,7.00848311 9.94566978,1.5926959 17.4887695,1.5926959 C25.0318692,1.5926959 31.5066511,7.00827606 33.3114953,8.66795111 L33.3114953,8.66805464 C33.3310125,8.68596405 33.342134,8.71101653 33.342134,8.73700072 C33.342243,8.76308843 33.3312305,8.78814091 33.3120405,8.8059468 Z" id="Shape"></path>
                            <path d="M17.4887695,3.03010784 C14.1743458,3.03010784 11.4778193,5.59022286 11.4778193,8.73720776 C11.4778193,11.8841927 14.1742368,14.4443077 17.4887695,14.4443077 C20.8033022,14.4443077 23.4998287,11.8841927 23.4998287,8.73720776 C23.4998287,5.59022286 20.8033022,3.03010784 17.4887695,3.03010784 Z M17.4887695,12.8913645 C15.0761682,12.8913645 13.1133333,11.0277498 13.1133333,8.73710424 C13.1133333,6.44645866 15.0761682,4.582844 17.4887695,4.582844 C19.9014798,4.582844 21.8643146,6.44645866 21.8643146,8.73710424 C21.8643146,11.0277498 19.9014798,12.8913645 17.4887695,12.8913645 Z" id="Shape"></path>
                            <ellipse id="Oval" cx="5.47864486" cy="7.9606844" rx="1" ry="1"></ellipse>
                            <path d="M11.5329907,4.46224012 C11.3309502,4.07879224 10.8401869,3.92361179 10.4357788,4.11502516 C8.75087227,4.91494464 7.10009346,5.97470597 7.03074766,6.01942775 C6.65697819,6.2601179 6.55961059,6.74274047 6.81300623,7.09771963 C6.97110592,7.31915457 7.22853583,7.43841265 7.49054517,7.43841265 C7.64853583,7.43841265 7.80816199,7.39503666 7.94870717,7.30466139 C7.96484424,7.29420561 9.5817134,6.25680518 11.1673988,5.5039885 C11.5712617,5.31216104 11.7350312,4.84579152 11.5329907,4.46224012 Z" id="Shape"></path>
                        </g>
                    </g>
                </g>
            </g>
        </g>
    </g>
</svg>