<?xml version="1.0" encoding="UTF-8"?>
<svg fill="#321F40" width="24px" height="24px" viewBox="0 0 24 24" version="1.1" xmlns="http://www.w3.org/2000/svg" xmlns:xlink="http://www.w3.org/1999/xlink">
    <g id="Page-1" stroke="none" stroke-width="1" fill-rule="evenodd">
        <g id="HOME" transform="translate(-308.000000, -44.000000)" fill-rule="nonzero">
            <g id="//-INFO" transform="translate(295.000000, 31.000000)">
                <g id="information" transform="translate(13.000000, 13.000000)">
                    <path d="M12,0 C5.3832,0 0,5.38327273 0,12.0000727 C0,18.6168727 5.3832,24 12,24 C18.6168,24 24,18.6168727 24,12.0000727 C24,5.38327273 18.6168,0 12,0 Z M12,21.8181818 C6.58618182,21.8181818 2.18181818,17.4138182 2.18181818,12.0000727 C2.18181818,6.58632727 6.58618182,2.18181818 12,2.18181818 C17.4138182,2.18181818 21.8181818,6.58632727 21.8181818,12.0000727 C21.8181818,17.4138182 17.4137455,21.8181818 12,21.8181818 Z" id="Shape"></path>
                    <path d="M11.9545455,6.63636364 C11.3780711,6.63636364 10.9090909,7.10556364 10.9090909,7.68228864 C10.9090909,8.25849091 11.3780711,8.72727273 11.9545455,8.72727273 C12.5310198,8.72727273 13,8.25849091 13,7.68228864 C13,7.10556364 12.5310198,6.63636364 11.9545455,6.63636364 Z" id="Shape"></path>
                    <path d="M12,9.81818182 C11.3975273,9.81818182 10.9090909,10.3066182 10.9090909,10.9090909 L10.9090909,17.4545455 C10.9090909,18.0570182 11.3975273,18.5454545 12,18.5454545 C12.6024727,18.5454545 13.0909091,18.0570182 13.0909091,17.4545455 L13.0909091,10.9090909 C13.0909091,10.3066182 12.6024727,9.81818182 12,9.81818182 Z" id="Shape"></path>
                </g>
            </g>
        </g>
    </g>
</svg>
