<?xml version="1.0" encoding="UTF-8"?>
<svg width="22px" height="22px" viewBox="0 0 22 22" version="1.1" xmlns="http://www.w3.org/2000/svg" xmlns:xlink="http://www.w3.org/1999/xlink" fill="#321F40">
   <g id="Symbols" stroke="none" stroke-width="1"  fill-rule="evenodd">
        <g id="TOP" transform="translate(-89.000000, -14.000000)"  fill-rule="nonzero">
            <g id="//-TOGGLE-Copy" transform="translate(75.000000, 0.000000)">
                <g id="layers" transform="translate(14.000000, 14.000000)">
                    <path d="M21.5086886,5.16155338 L11.3974449,0.0940339782 C11.1472344,-0.0313446594 10.8527226,-0.0313446594 10.6025551,0.0940339782 L0.491268435,5.16155338 C0.190182288,5.31247291 0,5.62090178 0,5.95831718 C0,6.29573259 0.190182288,6.60420452 0.491268435,6.75508098 L10.6025551,11.8226435 C10.7276818,11.8853112 10.8638087,11.9166667 11.0000215,11.9166667 C11.1361483,11.9166667 11.2724041,11.8853112 11.3974449,11.8226435 L21.5087316,6.75508098 C21.8098177,6.60416145 22,6.29577566 22,5.95831718 C21.999957,5.62090178 21.8097318,5.31242984 21.5086886,5.16155338 Z M11.0000215,10.0299572 L2.87589479,5.95831718 L10.9999785,1.88667715 L19.1240622,5.95831718 L11.0000215,10.0299572 Z" id="Shape"></path>
                    <path d="M21.9059909,16.0448556 C21.6865074,15.6326422 21.152623,15.4656344 20.713656,15.6716201 L11.0000094,20.2323969 L1.28631983,15.6715797 C0.847352932,15.4655134 0.313511429,15.6326422 0.0940279773,16.0448153 C-0.125498443,16.457069 0.0524773709,16.9583344 0.491444274,17.1644815 L10.6025502,21.9119164 C10.7276746,21.9706254 10.8637991,22 11.0000094,22 C11.1361339,22 11.2723872,21.9706254 11.3974687,21.9119568 L21.5085746,17.1645219 C21.9475415,16.9583344 22.1254743,16.457069 21.9059909,16.0448556 Z" id="Shape" opacity="0.5"></path>
                    <path d="M21.9059919,10.5448086 C21.6865085,10.1325947 21.152624,9.96550609 20.713657,10.171613 L11.00001,14.7324353 L1.2863199,10.171613 C0.847352973,9.96550609 0.313511444,10.1325947 0.0940279819,10.5448086 C-0.125498449,10.9570629 0.0524773735,11.4583288 0.491444297,11.6644761 L10.6025507,16.4119163 C10.7276751,16.4706253 10.8637996,16.5 11.00001,16.5 C11.1361344,16.5 11.2723877,16.4706253 11.3974692,16.4119163 L21.5085326,11.6644761 C21.9475425,11.4583288 22.1254754,10.9570225 21.9059919,10.5448086 Z" id="Shape" opacity="0.66"></path>
                </g>
            </g>
        </g>
    </g>
</svg>
