<?xml version="1.0" encoding="UTF-8"?>
<svg width="20px" height="20px" viewBox="0 0 20 20" version="1.1" xmlns="http://www.w3.org/2000/svg" xmlns:xlink="http://www.w3.org/1999/xlink">
    <!-- Generator: Sketch 51.2 (57519) - http://www.bohemiancoding.com/sketch -->
    <title>layer</title>
    <desc>Created with Sketch.</desc>
    <defs></defs>
    <g id="Page-1" stroke="none" stroke-width="1" fill="none" fill-rule="evenodd">
        <g id="HOME" transform="translate(-119.000000, -46.000000)" fill="#321F40" fill-rule="nonzero">
            <g id="//-TOGGLE-Copy" transform="translate(104.000000, 31.000000)">
                <g id="layer" transform="translate(15.000000, 15.000000)">
                    <path d="M19.7247656,6.02025752 L10.3107031,0.0897528856 C10.1207422,-0.0299176285 9.87925781,-0.0299176285 9.68929687,0.0897528856 L0.275234375,6.02025752 C0.104140625,6.12783138 0,6.3165471 0,6.51963743 C0,6.72272776 0.104140625,6.91144349 0.275234375,7.01901734 L9.68929687,12.9102471 C9.87925781,13.0299176 10.1207422,13.0299176 10.3107031,12.9102471 L19.7247656,7.01901734 C19.8958594,6.91144349 20,6.72272776 20,6.51963743 C20,6.3165471 19.8958594,6.12783138 19.7247656,6.02025752 Z" id="Shape"></path>
                    <path d="M19.7247656,13.5285697 L18.8124609,13 L10.3107031,17.9030571 C10.1207422,18.0133915 9.87925781,18.0133915 9.68929687,17.9030571 L1.22660156,13 L0.275234375,13.5285697 C0.104140625,13.6277512 0,13.8017443 0,13.9889906 C0,14.1762369 0.104140625,14.35023 0.275234375,14.4494115 L9.68929687,19.9172492 C9.87925781,20.0275836 10.1207422,20.0275836 10.3107031,19.9172492 L19.7247656,14.4494115 C19.8958594,14.35023 20,14.1762369 20,13.9889906 C20,13.8017443 19.8958594,13.6277512 19.7247656,13.5285697 Z" id="Shape" opacity="0.5"></path>
                    <path d="M19.7247656,9.53131821 L18.8124609,9 L10.3107031,13.9285524 C10.1207422,14.0394606 9.87925781,14.0394606 9.68929687,13.9285524 L1.22660156,9 L0.275234375,9.53131821 C0.104140625,9.63101544 0,9.8059133 0,9.99413324 C0,10.1823532 0.104140625,10.357251 0.275234375,10.4569483 L9.68929687,15.9168189 C9.87925781,16.027727 10.1207422,16.027727 10.3107031,15.9168189 L19.7247656,10.4569483 C19.8958594,10.357251 20,10.1823532 20,9.99413324 C20,9.8059133 19.8958594,9.63101544 19.7247656,9.53131821 Z" id="Shape" opacity="0.66"></path>
                </g>
            </g>
        </g>
    </g>
</svg>