<?xml version="1.0" encoding="UTF-8"?>
<svg width="24px" height="19px" viewBox="0 0 24 19" version="1.1" xmlns="http://www.w3.org/2000/svg" xmlns:xlink="http://www.w3.org/1999/xlink">
    <!-- Generator: Sketch 51.2 (57519) - http://www.bohemiancoding.com/sketch -->
    <title>lifeline-in-a-heart-outline</title>
    <desc>Created with Sketch.</desc>
    <defs></defs>
    <g id="Page-1" stroke="none" stroke-width="1" fill="none" fill-rule="evenodd">
        <g id="SIGNALEMENT---ETAPE-01" transform="translate(-84.000000, -555.000000)" fill="#DC476A" fill-rule="nonzero">
            <g id="//-SIGNALER" transform="translate(0.000000, 445.000000)">
                <g id="::-signaler-copy-3" transform="translate(84.000000, 97.000000)">
                    <g id="lifeline-in-a-heart-outline" transform="translate(0.000000, 13.000000)">
                        <path d="M23.7488842,6.58635789 C23.7488842,7.26164211 23.6382316,7.92783158 23.4234947,8.56825263 C22.4147368,13.1325474 13.6918737,18.6540632 13.3207579,18.8890105 C13.2048,18.9610105 13.0746947,18.9986526 12.9420632,18.9986526 C12.8096842,18.9986526 12.6778105,18.9653053 12.5618526,18.8890105 C12.4620632,18.8240842 10.0044632,17.2731789 7.51275789,15.1414737 C7.2144,14.8842947 7.18307368,14.4406737 7.43343158,14.1435789 C7.68985263,13.8490105 8.13296842,13.8131368 8.43183158,14.0634947 C10.2891789,15.6502737 12.1662316,16.9331368 12.9456,17.4500211 C15.5653895,15.7419789 21.3488842,11.3964632 22.0577684,8.19157895 C22.2429474,7.62543158 22.3265684,7.11056842 22.3265684,6.58787368 C22.3265684,4.76842105 21.336,3.0912 19.7408842,2.21254737 C17.7039158,1.08227368 14.9772632,1.60345263 13.4869895,3.39991579 C13.2192,3.72429474 12.6684632,3.72429474 12.3956211,3.39991579 C10.9008,1.60218947 8.17616842,1.08505263 6.14197895,2.21052632 C4.54181053,3.0912 3.55124211,4.76741053 3.55124211,6.58509474 C3.55124211,7.10425263 3.63915789,7.62138947 3.80286316,8.12084211 C3.90795789,8.58821053 4.10905263,9.04522105 4.36496842,9.51941053 L8.49701053,9.51941053 L9.91604211,6.25818947 C10.0375579,5.97903158 10.3278316,5.80345263 10.6264421,5.83477895 C10.9306105,5.86130526 11.1842526,6.08008421 11.2519579,6.37717895 L12.2965895,10.7936842 L13.6479158,8.57785263 C13.7752421,8.36741053 14.0043789,8.23882105 14.2519579,8.23882105 L16.8164211,8.23882105 C17.2067368,8.23882105 17.5240421,8.55486316 17.5240421,8.94694737 C17.5240421,9.33701053 17.2067368,9.65482105 16.8164211,9.65482105 L14.6493474,9.65482105 L12.6136421,12.9986526 C12.4837895,13.2118737 12.2549053,13.3392 12.0116211,13.3392 C11.9729684,13.3392 11.9355789,13.3361684 11.9009684,13.3308632 C11.6157474,13.2851368 11.3911579,13.0749474 11.3226947,12.7957895 L10.368,8.77288421 L9.61364211,10.5092211 C9.50096842,10.7701895 9.24555789,10.9349053 8.96387368,10.9349053 L0.707873684,10.9349053 C0.320336842,10.9346526 0,10.6178526 0,10.2270316 C0,9.83696842 0.320336842,9.51915789 0.707873684,9.51915789 L2.78374737,9.51915789 C2.63646316,9.16774737 2.51747368,8.82669474 2.44370526,8.49675789 C2.24614737,7.92378947 2.13928421,7.25658947 2.13928421,6.58484211 C2.13928421,4.25002105 3.40901053,2.10037895 5.46063158,0.970105263 C7.83688421,-0.344336842 10.9813895,0.0689684211 12.9450947,1.91418947 C14.9034947,0.0687157895 18.0457263,-0.344336842 20.4260211,0.970105263 C22.4751158,2.09886316 23.7488842,4.25002105 23.7488842,6.58635789 Z" id="Shape"></path>
                    </g>
                </g>
            </g>
        </g>
    </g>
</svg>