<?xml version="1.0" encoding="UTF-8"?>
<svg width="24px" height="24px" viewBox="0 0 24 24" version="1.1" xmlns="http://www.w3.org/2000/svg" xmlns:xlink="http://www.w3.org/1999/xlink">
    <!-- Generator: Sketch 51.2 (57519) - http://www.bohemiancoding.com/sketch -->
    <title>map-2</title>
    <desc>Created with Sketch.</desc>
    <defs></defs>
    <g id="Page-1" stroke="none" stroke-width="1" fill="none" fill-rule="evenodd">
        <g id="DÉTAIL---02" transform="translate(-84.000000, -631.000000)" fill="#321F40" fill-rule="nonzero">
            <g id="//-MENU" transform="translate(0.000000, 605.000000)">
                <g id="::-icones" transform="translate(84.000000, 26.000000)">
                    <g id="map-2">
                        <path d="M23.3803787,2.29067687 L15.9449225,0.0370423705 C15.9242685,0.0370423705 15.9036145,0.0370423705 15.9036145,0.0370423705 C15.8623064,0.0370423705 15.8416523,0.0163668247 15.8003442,0.0163668247 C15.7590361,0.0163668247 15.7383821,0.0163668247 15.697074,0.0163668247 C15.6557659,0.0163668247 15.6351119,0.0163668247 15.5938038,0.0163668247 C15.5524957,0.0163668247 15.5318417,0.0163668247 15.4905336,0.0370423705 C15.4698795,0.0370423705 15.4492255,0.0370423705 15.4492255,0.0370423705 L8.28227194,2.22865023 L1.09466437,0.0370423705 C0.846815835,-0.0456598129 0.557659208,0.0163668247 0.351118761,0.161095646 C0.144578313,0.326500012 0,0.574606562 0,0.843388658 L0,20.8986681 C0,21.2708279 0.247848537,21.6016367 0.598967298,21.7050144 L8.03442341,23.9586489 C8.11703959,23.9793245 8.19965577,24 8.28227194,24 C8.36488812,24 8.4475043,23.9793245 8.53012048,23.9586489 L15.7177281,21.7877166 L22.9053356,23.9586489 C22.9879518,23.9793245 23.070568,24 23.1531842,24 C23.3390706,24 23.5043029,23.9379734 23.6488812,23.8345956 C23.8554217,23.6691913 24,23.4210847 24,23.1523026 L24,3.09702315 C24,2.72486333 23.7521515,2.41473014 23.3803787,2.29067687 Z M7.43545611,22.0358231 L1.69363167,20.2990773 L1.69363167,1.98054368 L7.43545611,3.71728953 L7.43545611,22.0358231 Z M14.8709122,20.2784017 L9.12908778,22.0358231 L9.12908778,3.73796508 L14.8709122,1.98054368 L14.8709122,20.2784017 Z M22.3063683,22.0358231 L16.5645439,20.2990773 L16.5645439,1.98054368 L22.3063683,3.71728953 L22.3063683,22.0358231 Z" id="Shape"></path>
                    </g>
                </g>
            </g>
        </g>
    </g>
</svg>