<?xml version="1.0" encoding="UTF-8"?>
<svg width="24px" height="28px" viewBox="0 0 24 28" version="1.1" xmlns="http://www.w3.org/2000/svg" xmlns:xlink="http://www.w3.org/1999/xlink">
    <!-- Generator: Sketch 51.2 (57519) - http://www.bohemiancoding.com/sketch -->
    <title>nose</title>
    <desc>Created with Sketch.</desc>
    <defs></defs>
    <g id="Page-1" stroke="none" stroke-width="1" fill="none" fill-rule="evenodd">
        <g id="DÉTAIL---02" transform="translate(-321.000000, -30.000000)" fill="#FC3867" fill-rule="nonzero">
            <g id="//-DÉTAIL" transform="translate(0.000000, -12.000000)">
                <g id="::-item-copy-3" transform="translate(27.000000, 42.000000)">
                    <g id="::-symptomes" transform="translate(198.000000, 0.000000)">
                        <g id="nose" transform="translate(96.000000, 0.000000)">
                            <path d="M18.4042318,15.1127213 C17.8670834,13.8773579 16.6586199,8.39129823 15.7246453,3.40994145 C15.5557586,1.49439742 13.9276749,0 12,0 C10.0723251,0 8.4442414,1.49439742 8.27535465,3.40994145 C7.34138014,8.39129823 6.13291657,13.8773579 5.59576821,15.1127213 C2.47905747,15.2987758 0,17.8927697 0,21.0547346 C0,24.3370821 2.67102669,27.0073247 5.95421976,27.0073247 C6.80452032,27.0073247 7.6417408,26.8239625 8.41038711,26.4756992 C9.34763164,27.4449134 10.6490983,28 12,28 C13.3509017,28 14.6523684,27.4450095 15.5896129,26.4756992 C16.358163,26.8239625 17.1954797,27.0073247 18.0457802,27.0073247 C21.3289733,27.0073247 24,24.3370821 24,21.0547346 C24,17.8927697 21.5209425,15.2986796 18.4042318,15.1127213 Z M18.0456841,25.5650418 C17.4970906,25.5650418 16.9561914,25.462832 16.4480885,25.2704315 C16.669007,24.8353428 16.8265448,24.3700623 16.9132965,23.889686 C17.1069969,23.9248777 17.3133926,23.9445889 17.5284443,23.9445889 C18.6134167,23.9445889 19.4928589,23.4601741 19.4928589,22.8627805 C19.4928589,22.2652908 18.6133205,21.7809722 17.5284443,21.7809722 C16.5236836,21.7809722 15.6966579,22.1966381 15.5796105,22.7324943 L15.5400818,22.7355712 C15.597307,23.4779623 15.4163982,24.2178534 15.0358259,24.8471695 L14.8118298,25.1061074 C14.7913441,25.129857 14.7709546,25.1537027 14.7496994,25.1766831 C14.0426064,25.9399392 13.0404424,26.3778163 11.9998076,26.3778163 C10.9591729,26.3778163 9.9570089,25.9399392 9.2501082,25.1768754 C9.22914162,25.1543758 9.20932917,25.1310108 9.18932436,25.1078381 L8.96552056,24.8497656 C8.58379418,24.2197764 8.40221207,23.4789238 8.45953354,22.735475 L8.42010099,22.7323981 C8.30305362,22.1964458 7.47593171,21.780876 6.47126713,21.780876 C5.38629478,21.780876 4.50685261,22.2651946 4.50685261,22.8626844 C4.50685261,23.4601741 5.38639096,23.9444927 6.47126713,23.9444927 C6.68631883,23.9444927 6.89271459,23.9247815 7.086415,23.8895898 C7.17316663,24.3700623 7.3307045,24.8352466 7.55162299,25.2703353 C7.04352008,25.462832 6.502717,25.5649457 5.95402741,25.5649457 C3.46631402,25.5649457 1.44246213,23.541615 1.44246213,21.0546385 C1.44246213,18.5675658 3.46631402,16.5442352 5.95402741,16.5442352 C6.63322914,16.5442352 6.93157009,15.9012654 7.43169031,14.0905273 C7.71743208,13.0560258 8.06039913,11.6183582 8.45106997,9.81752374 C9.11363308,6.76363387 9.69415725,3.66993699 9.69992787,3.63907213 L9.71002645,3.56166961 C9.80197163,2.37332463 10.8076942,1.44228293 12,1.44228293 C13.1923058,1.44228293 14.1980284,2.37332463 14.289685,3.56176577 L14.2997836,3.63916828 C14.3056504,3.67003314 14.8861746,6.76373002 15.5486415,9.81761989 C15.9393123,11.6184544 16.2822794,13.0562181 16.5680212,14.0906234 C17.0681414,15.9013616 17.3665785,16.5443313 18.0456841,16.5443313 C20.5333975,16.5443313 22.5572493,18.567662 22.5572493,21.0547346 C22.5573455,23.5417112 20.5334936,25.5650418 18.0456841,25.5650418 Z" id="Shape"></path>
                            <path d="M11.3827297,7.01538257 C10.9636109,6.93353058 10.5523532,7.18640347 10.4646403,7.58200514 L9.01654965,14.118457 C8.92894017,14.5140587 9.19787128,14.9016605 9.61730039,14.9843906 C9.67087974,14.9948294 9.72414879,15 9.77679723,15 C10.1363374,15 10.4589513,14.7628341 10.5353898,14.417768 L11.9834805,7.8813161 C12.0709865,7.48571443 11.8021588,7.09811259 11.3827297,7.01538257 Z" id="Shape"></path>
                            <circle id="Oval" cx="8.5" cy="16.5" r="1"></circle>
                        </g>
                    </g>
                </g>
            </g>
        </g>
    </g>
</svg>