<?xml version="1.0" encoding="UTF-8"?>
<svg width="13px" height="15px" viewBox="0 0 13 15" version="1.1" xmlns="http://www.w3.org/2000/svg" xmlns:xlink="http://www.w3.org/1999/xlink">
    <!-- Generator: Sketch 51.2 (57519) - http://www.bohemiancoding.com/sketch -->
    <title>placeholder</title>
    <desc>Created with Sketch.</desc>
    <defs></defs>
    <g id="Page-1" stroke="none" stroke-width="1" fill="none" fill-rule="evenodd">
        <g id="DÉTAIL---02" transform="translate(-28.000000, -117.000000)" fill="#888888" fill-rule="nonzero">
            <g id="//-DÉTAIL" transform="translate(0.000000, -12.000000)">
                <g id="::-item-copy-3" transform="translate(27.000000, 42.000000)">
                    <g id="::-lieu" transform="translate(1.000000, 87.000000)">
                        <g id="placeholder">
                            <path d="M8.21849315,10.8831313 C9.44429224,8.84459014 10.9936073,5.97872866 10.9936073,4.5056223 C10.9936073,2.0206853 8.9783105,-2.84217094e-14 6.5,-2.84217094e-14 C4.0216895,-2.84217094e-14 2.00639269,2.0206853 2.00639269,4.5056223 C2.00639269,5.97872866 3.55570776,8.84459014 4.78150685,10.8831313 C3.32716895,10.9932423 0.0178082192,11.3890466 0.0178082192,12.7014504 C0.0178082192,13.9930225 3.37762557,14.582265 6.50296804,14.582265 C9.62534247,14.582265 12.9881279,13.9930225 12.9881279,12.7014504 C12.9851598,11.3890466 9.67283105,10.9932423 8.21849315,10.8831313 Z M2.62671233,4.5056223 C2.62671233,2.36292213 4.36598174,0.619002271 6.5,0.619002271 C8.6369863,0.619002271 10.3762557,2.36292213 10.3762557,4.5056223 C10.3762557,6.37750897 7.40228311,11.0735935 6.5,12.4544447 C5.59771689,11.0735935 2.62671233,6.37750897 2.62671233,4.5056223 Z M6.5,13.9602868 C2.70388128,13.9602868 0.635159817,13.1270145 0.635159817,12.6984745 C0.635159817,12.3681415 2.00045662,11.6568841 5.14657534,11.4753498 C5.73721461,12.4306369 6.18538813,13.1061827 6.24474886,13.186534 C6.32488584,13.293669 6.55936073,13.4216358 6.75821918,13.186534 C6.82054795,13.1121346 7.26575342,12.4306369 7.85639269,11.4753498 C11.0025114,11.6568841 12.3678082,12.3651656 12.3678082,12.6984745 C12.3648402,13.1299905 10.2961187,13.9602868 6.5,13.9602868 Z" id="Shape"></path>
                            <path d="M8.45593607,4.5056223 C8.45593607,3.42236832 7.5803653,2.54445645 6.5,2.54445645 C5.4196347,2.54445645 4.54406393,3.42236832 4.54406393,4.5056223 C4.54406393,5.58887627 5.4196347,6.46678815 6.5,6.46678815 C7.5803653,6.46678815 8.45593607,5.58887627 8.45593607,4.5056223 Z M5.16141553,4.5056223 C5.16141553,3.76460516 5.7609589,3.16345872 6.5,3.16345872 C7.2390411,3.16345872 7.83858447,3.76460516 7.83858447,4.5056223 C7.83858447,5.24663944 7.2390411,5.84778588 6.5,5.84778588 C5.7609589,5.84778588 5.16141553,5.24663944 5.16141553,4.5056223 Z" id="Shape"></path>
                        </g>
                    </g>
                </g>
            </g>
        </g>
    </g>
</svg>