<?xml version="1.0" encoding="UTF-8"?>
<svg fill="#FFFFFF" width="18px" height="18px" viewBox="0 0 18 18" version="1.1" xmlns="http://www.w3.org/2000/svg" xmlns:xlink="http://www.w3.org/1999/xlink">
  <g transform="translate(-180.000000, -633.000000)"  fill-rule="nonzero">
    <g transform="translate(152.000000, 605.000000)">
      <g transform="translate(28.000000, 28.000000)">
        <path d="M16.9207157,7.92052329 L9.92056604,7.94168573 L9.92056604,1.07928432 C9.92056604,0.481349266 9.43921678,0 8.84128172,0 C8.24353904,0 7.76199739,0.481349266 7.76199739,1.07928432 L7.78315983,7.92071568 L1.07928432,7.92071568 C0.481349266,7.92071568 0,8.40206494 0,9 C0,9.59774267 0.481349266,10.0790919 1.07928432,10.0790919 L7.77257861,10.0790919 L7.77257861,16.9207157 C7.77257861,17.518266 8.25392788,18 8.85186294,18 C9.44979799,18 9.93114726,17.518266 9.93114726,16.9207157 L9.93114726,10.0792843 L16.9207157,10.0792843 C17.5186507,10.0792843 18,9.59755029 18,9 C18,8.40187256 17.5132639,7.92052329 16.9207157,7.92052329 Z"></path>
      </g>
    </g>
  </g>
</svg>
