<?xml version="1.0" encoding="UTF-8"?>
<svg fill="#888888" width="20px" height="20px" viewBox="0 0 20 20" version="1.1" xmlns="http://www.w3.org/2000/svg" xmlns:xlink="http://www.w3.org/1999/xlink">
    <g id="Page-1" stroke="none" stroke-width="1" fill-rule="evenodd">
        <g id="MON-ESPACE---DETAIL" transform="translate(-52.000000, -271.000000)" fill-rule="nonzero">
            <g id="//-HISTORIQUE" transform="translate(0.000000, 48.000000)">
                <g id="::-item" transform="translate(28.000000, 133.000000)">
                    <g id=":::-infos" transform="translate(0.000000, 3.000000)">
                        <g id="round-delete-button" transform="translate(24.000000, 87.000000)">
                            <path d="M9.9996,0 C4.48585,0 0,4.486 0,10 C0,15.514 4.48585,20 9.9996,20 C15.51365,20 20,15.514 20,10 C20,4.486 15.51365,0 9.9996,0 Z M9.9996,18.6885 C5.2089,18.6885 1.3115,14.7908 1.3115,10 C1.3115,5.20915 5.20885,1.31155 9.9996,1.31155 C14.7907,1.31155 18.6884,5.2092 18.6884,10 C18.68845,14.7908 14.7907,18.6885 9.9996,18.6885 Z" id="Shape"></path>
                            <path d="M13.27365,6.72645 C13.0175,6.4703 12.60255,6.4703 12.3464,6.72645 L10,9.0727 L7.6536,6.72645 C7.39745,6.4703 6.9824,6.4703 6.72625,6.72645 C6.4701,6.98245 6.4701,7.39775 6.72625,7.65375 L9.07235,10 L6.72595,12.3463 C6.4698,12.60225 6.4698,13.0174 6.72595,13.27365 C6.854,13.40175 7.02185,13.46575 7.1896,13.46575 C7.35735,13.46575 7.52515,13.40175 7.65315,13.27365 L10,10.92715 L12.3464,13.27375 C12.4745,13.40185 12.6422,13.46585 12.80995,13.46585 C12.97765,13.46585 13.1455,13.4019 13.27355,13.27375 C13.5297,13.0178 13.5297,12.60245 13.27355,12.3465 L10.92725,10 L13.27365,7.65375 C13.5298,7.39775 13.5298,6.9826 13.27365,6.72645 Z" id="Shape"></path>
                        </g>
                    </g>
                </g>
            </g>
        </g>
    </g>
</svg>
